<svg width="16" height="16" viewBox="0 0 16 16" fill="none" xmlns="http://www.w3.org/2000/svg">
<g id="Add Ons">
<g id="Vector">
<path d="M7 7.2C7 7.08954 7.08954 7 7.2 7H14.8C14.9105 7 15 7.08954 15 7.2V9.8C15 9.91046 14.9105 10 14.8 10H7.2C7.08954 10 7 9.91046 7 9.8V7.2Z" fill="#1B1C1D"/>
<path d="M7 11.2C7 11.0895 7.08954 11 7.2 11H14.8C14.9105 11 15 11.0895 15 11.2V13.8C15 13.9105 14.9105 14 14.8 14H7.2C7.08954 14 7 13.9105 7 13.8V11.2Z" fill="#1B1C1D"/>
<path d="M4 6H5V13H4V6Z" fill="#1B1C1D"/>
<path d="M5 12H7V13H5V12Z" fill="#1B1C1D"/>
<path d="M5 8H7V9H5V8Z" fill="#1B1C1D"/>
<path fill-rule="evenodd" clip-rule="evenodd" d="M1.2 2C1.08954 2 1 2.08954 1 2.2V5.8C1 5.91046 1.08954 6 1.2 6H14.8C14.9105 6 15 5.91046 15 5.8V2.2C15 2.08954 14.9105 2 14.8 2H1.2ZM3 5C3.55228 5 4 4.55229 4 4C4 3.44772 3.55228 3 3 3C2.44772 3 2 3.44772 2 4C2 4.55229 2.44772 5 3 5Z" fill="#1B1C1D"/>
</g>
</g>
</svg>
