<svg width="16" height="16" viewBox="0 0 16 16" fill="none" xmlns="http://www.w3.org/2000/svg">
<g id="clone-filled">
<path id="Combined Shape" fill-rule="evenodd" clip-rule="evenodd" d="M6.51538 0.490234H13.8404C14.1154 0.490234 14.3404 0.715234 14.3404 0.990234V10.3402C14.3404 10.6152 14.1154 10.8402 13.8404 10.8402H10.8104V4.65523C10.8104 3.83023 10.1354 3.15523 9.31038 3.15523H6.01538V0.990234C6.01538 0.715234 6.24038 0.490234 6.51538 0.490234ZM1.98535 4.15527H9.31035C9.58649 4.15527 9.81035 4.37913 9.81035 4.65527V14.0003C9.81035 14.2764 9.58649 14.5003 9.31035 14.5003H1.98535C1.70921 14.5003 1.48535 14.2764 1.48535 14.0003V4.65527C1.48535 4.37913 1.70921 4.15527 1.98535 4.15527Z" fill="#1B1C1D"/>
</g>
</svg>
