<svg width="16" height="16" viewBox="0 0 16 16" fill="none" xmlns="http://www.w3.org/2000/svg">
<g id="gift-filled">
<path id="Combined Shape" fill-rule="evenodd" clip-rule="evenodd" d="M11.17 3.57522C10.53 4.02522 8.465 3.75022 8.465 3.75022C8.465 3.75022 8.89 1.71022 9.53 1.26022C10.17 0.810224 11.055 0.960224 11.505 1.60022C11.955 2.24022 11.805 3.12522 11.165 3.57522H11.17ZM7.5 4.70023V7.20023H1.5V5.20023C1.5 4.92523 1.725 4.70023 2 4.70023H7.5ZM14.5 5.20023V7.20023H8.5V4.70023H14C14.275 4.70023 14.5 4.92523 14.5 5.20023ZM13.5 15.0002H8.5V8.20023H14V14.5002C14 14.7752 13.775 15.0002 13.5 15.0002ZM2 8.20023V14.5002C2 14.7752 2.225 15.0002 2.5 15.0002H7.5V8.20023H2ZM7.535 3.75022C7.535 3.75022 5.47 4.02522 4.83 3.57522H4.835C4.195 3.12522 4.045 2.24022 4.495 1.60022C4.945 0.960224 5.83 0.810224 6.47 1.26022C7.11 1.71022 7.535 3.75022 7.535 3.75022Z" fill="#1B1C1D"/>
</g>
</svg>
