<svg width="16" height="16" viewBox="0 0 16 16" fill="none" xmlns="http://www.w3.org/2000/svg">
<g id="reset &#226;&#154;&#160;&#239;&#184;&#143; DEPRECATED &#226;&#154;&#160;&#239;&#184;&#143;">
<path id="Combined Shape" fill-rule="evenodd" clip-rule="evenodd" d="M8 0.281014V1.97935C11.866 1.97935 15 5.11301 15 8.97935C15 12.8453 11.866 15.9793 8 15.9793C4.134 15.9793 1 12.8453 1 8.97935C1 6.91801 1.896 5.07101 3.31333 3.79035L4.435 4.58035C3.15433 5.62001 2.33333 7.20501 2.33333 8.97935C2.33333 12.1037 4.87533 14.646 8 14.646C11.1247 14.646 13.6667 12.1037 13.6667 8.97935C13.6667 5.85468 11.1247 3.31268 8 3.31268V5.01068C8 5.25868 7.83533 5.34468 7.63367 5.20201L4 2.64301L7.63367 0.090014C7.83533 -0.0526526 8 0.033014 8 0.281014ZM9 9.02068C9 9.57297 8.55228 10.0207 8 10.0207C7.44772 10.0207 7 9.57297 7 9.02068C7 8.4684 7.44772 8.02068 8 8.02068C8.55228 8.02068 9 8.4684 9 9.02068Z" fill="#0070D2"/>
</g>
</svg>
