<svg width="20" height="16" viewBox="0 0 20 16" fill="none" xmlns="http://www.w3.org/2000/svg">
<path fill-rule="evenodd" clip-rule="evenodd" d="M12.4451 0.888672C16.3724 0.888672 19.5562 4.07219 19.5562 7.99978C19.5562 11.9271 16.3724 15.1109 12.4451 15.1109C8.51782 15.1109 5.33398 11.9271 5.33398 7.99978C5.33398 4.07219 8.51782 0.888672 12.4451 0.888672ZM12.4451 2.07386C9.17226 2.07386 6.51917 4.72687 6.51917 7.99978C6.51917 11.2725 9.17238 13.9257 12.4451 13.9257C15.7178 13.9257 18.371 11.2725 18.371 7.99978C18.371 4.72687 15.7179 2.07386 12.4451 2.07386ZM16.3899 7.99978C16.3899 7.6725 16.1246 7.40719 15.7973 7.40719H13.0377V4.64757L13.0331 4.57324C12.9965 4.28105 12.7472 4.05498 12.4451 4.05498C12.1178 4.05498 11.8525 4.32029 11.8525 4.64757V7.40719H9.09289L9.01855 7.41181C8.72636 7.44837 8.50029 7.69768 8.50029 7.99978C8.50029 8.32706 8.76561 8.59238 9.09289 8.59238H11.8525V11.352L11.8571 11.4263C11.8937 11.7185 12.143 11.9446 12.4451 11.9446C12.7724 11.9446 13.0377 11.6793 13.0377 11.352V8.59238H15.7973L15.8716 8.58776C16.1638 8.55119 16.3899 8.30189 16.3899 7.99978Z" fill="#227BB1"/>
<mask id="path-2-inside-1_135_1040" fill="white">
<path d="M5.93489 14.8048C4.43697 14.3501 3.13093 13.4139 2.21932 12.1414C1.30771 10.8688 0.841483 9.33097 0.89295 7.76642C0.944417 6.20187 1.5107 4.69802 2.50397 3.4881C3.49724 2.27819 4.86199 1.42984 6.38655 1.07461L6.70928 2.45973C5.48963 2.74391 4.39784 3.4226 3.60322 4.39053C2.8086 5.35846 2.35558 6.56154 2.3144 7.81318C2.27323 9.06482 2.64621 10.2951 3.3755 11.3131C4.10478 12.3312 5.14962 13.0802 6.34796 13.4439L5.93489 14.8048Z"/>
</mask>
<path d="M5.93489 14.8048C4.43697 14.3501 3.13093 13.4139 2.21932 12.1414C1.30771 10.8688 0.841483 9.33097 0.89295 7.76642C0.944417 6.20187 1.5107 4.69802 2.50397 3.4881C3.49724 2.27819 4.86199 1.42984 6.38655 1.07461L6.70928 2.45973C5.48963 2.74391 4.39784 3.4226 3.60322 4.39053C2.8086 5.35846 2.35558 6.56154 2.3144 7.81318C2.27323 9.06482 2.64621 10.2951 3.3755 11.3131C4.10478 12.3312 5.14962 13.0802 6.34796 13.4439L5.93489 14.8048Z" stroke="#227BB1" stroke-width="2" mask="url(#path-2-inside-1_135_1040)"/>
</svg>
