<svg width="28" height="28" viewBox="0 0 28 28" fill="none" xmlns="http://www.w3.org/2000/svg">
<path fill-rule="evenodd" clip-rule="evenodd" d="M14.0003 13.4576C16.4415 13.4576 18.4278 11.4801 18.4278 9.05631C18.4278 6.63256 16.4415 4.65506 14.0003 4.65506C11.559 4.65506 9.57277 6.63256 9.57277 9.05631C9.57277 11.4801 11.559 13.4576 14.0003 13.4576ZM14.0003 6.17756C15.5928 6.17756 16.8965 7.46381 16.8965 9.04756C16.8965 10.6313 15.6015 11.9176 14.0003 11.9176C12.399 11.9176 11.104 10.6313 11.104 9.04756C11.104 7.46381 12.399 6.17756 14.0003 6.17756ZM24.2115 11.8125C24.2115 13.3613 22.9603 14.6213 21.4115 14.6213C19.8628 14.6213 18.6028 13.3525 18.6028 11.8125C18.6028 10.2725 19.8715 9.01254 21.4115 9.01254C22.9515 9.01254 24.2115 10.2638 24.2115 11.8125ZM21.4115 10.5263C20.694 10.5263 20.1165 11.1038 20.1165 11.8125C20.1165 12.53 20.7028 13.1075 21.4115 13.1075C22.1203 13.1075 22.6978 12.5213 22.6978 11.8125C22.6978 11.1038 22.129 10.5263 21.4115 10.5263ZM20.3178 15.5313H22.8465L22.8728 15.5225C24.8503 15.5225 26.4603 17.1325 26.4603 19.1188V20.6938C26.4603 21.4025 25.8828 21.98 25.174 21.98H21.359C21.1315 22.82 20.3703 23.4413 19.4603 23.4413H8.59277C7.67402 23.4413 6.91277 22.82 6.69402 21.98H2.87902C2.17027 21.98 1.59277 21.4025 1.59277 20.6938V19.1188C1.59277 17.1325 3.20277 15.5225 5.18027 15.5225H7.70902C7.85777 15.5225 8.01527 15.54 8.19902 15.5663H8.20777C9.17027 14.63 10.4915 14.0438 11.944 14.0438H16.0828C17.4915 14.0438 18.8303 14.595 19.8278 15.5663C20.0028 15.54 20.169 15.5313 20.3178 15.5313ZM3.32527 20.2388H6.60652V19.3463C6.60652 18.6113 6.75527 17.9113 7.02652 17.2813H5.16277C4.14777 17.2813 3.32527 18.1125 3.32527 19.1275V20.2388ZM19.6615 21.7V19.3375H19.6703C19.6703 17.4125 18.034 15.785 16.0915 15.785H11.944C9.96652 15.785 8.36527 17.3775 8.36527 19.3375V21.7H19.6615ZM20.9776 17.2725C21.2467 17.9262 21.4115 18.6145 21.4115 19.3288V20.23H24.6928V19.1188C24.6928 18.1038 23.8703 17.2725 22.8553 17.2725H20.9776ZM9.39778 11.8125C9.39778 13.3613 8.13778 14.6213 6.58903 14.6213C5.04903 14.6213 3.78903 13.3525 3.78903 11.8125C3.78903 10.2725 5.04028 9.01254 6.58903 9.01254C8.13778 9.01254 9.39778 10.2638 9.39778 11.8125ZM6.58903 10.5263C5.88028 10.5263 5.30278 11.1038 5.30278 11.8125C5.30278 12.53 5.87153 13.1075 6.58903 13.1075C7.30653 13.1075 7.88403 12.5213 7.88403 11.8125C7.88403 11.1038 7.29778 10.5263 6.58903 10.5263Z" fill="#1B1C1D"/>
</svg>
