<svg width="28" height="28" viewBox="0 0 28 28" fill="none" xmlns="http://www.w3.org/2000/svg">
<path fill-rule="evenodd" clip-rule="evenodd" d="M4.55854 7.00883L7.63854 3.15008C7.94479 2.77383 8.49604 2.70383 8.87229 3.01008C9.24854 3.31633 9.30979 3.86758 9.01229 4.24383L4.70729 9.64258L2.01229 6.92133C1.67104 6.58008 1.67104 6.02883 2.01229 5.68758C2.35354 5.33758 2.90479 5.34633 3.24604 5.68758L4.55854 7.00883ZM4.55854 14.9975L7.63854 11.1387C7.94479 10.7625 8.49604 10.6925 8.87229 10.9987C9.24854 11.305 9.30979 11.8562 9.01229 12.2325L4.70729 17.6312L2.01229 14.91C1.67104 14.5687 1.67104 14.0175 2.01229 13.6762C2.35354 13.3262 2.90479 13.335 3.24604 13.6762L4.55854 14.9975ZM7.63854 19.1276L4.55854 22.9863L3.24604 21.6651C2.90479 21.3238 2.35354 21.3238 2.01229 21.6651C1.67104 22.0063 1.67104 22.5576 2.01229 22.8988L4.70729 25.6201L9.01229 20.2213C9.30979 19.8451 9.24854 19.2938 8.87229 18.9876C8.49604 18.6813 7.94479 18.7513 7.63854 19.1276ZM11.6286 21.1136H25.3749C25.8561 21.1136 26.2499 21.5074 26.2499 21.9886C26.2499 22.4699 25.8561 22.8636 25.3749 22.8636H11.6286C11.1474 22.8636 10.7536 22.4699 10.7536 21.9886C10.7536 21.5074 11.1474 21.1136 11.6286 21.1136ZM25.3749 13.1075H11.6286C11.1474 13.1075 10.7536 13.5012 10.7536 13.9825C10.7536 14.4637 11.1474 14.8575 11.6286 14.8575H25.3749C25.8561 14.8575 26.2499 14.4637 26.2499 13.9825C26.2499 13.5012 25.8561 13.1075 25.3749 13.1075ZM25.3749 6.86008H11.6286C11.1474 6.86008 10.7536 6.46633 10.7536 5.98508C10.7536 5.50383 11.1474 5.11008 11.6286 5.11008H25.3749C25.8561 5.11008 26.2499 5.50383 26.2499 5.98508C26.2499 6.46633 25.8561 6.86008 25.3749 6.86008Z" fill="#1B1C1D"/>
</svg>
