<svg width="32" height="32" viewBox="0 0 32 32" fill="none" xmlns="http://www.w3.org/2000/svg">
<g clip-path="url(#clip0_6189_99929)">
<path fill-rule="evenodd" clip-rule="evenodd" d="M14.8537 5.64697C15.1385 5.64697 15.4102 5.76655 15.6022 5.97642L16.5887 7.05481C16.966 7.46721 16.9367 8.10667 16.5234 8.48307C16.3163 8.67163 16.0521 8.7584 15.7926 8.74621C15.3475 11.7414 12.9556 14.1393 9.92107 14.1393C8.23148 14.1393 6.72226 13.3815 5.65452 12.1973C5.28023 11.7822 5.31409 11.143 5.73015 10.7696C6.14622 10.3961 6.78693 10.4299 7.16123 10.845C7.8826 11.6451 8.86062 12.1173 9.92107 12.1173C11.7124 12.1173 13.3259 10.7278 13.7387 8.73925C13.5387 8.71391 13.3443 8.62895 13.1841 8.48307C12.7707 8.10667 12.7415 7.46721 13.1187 7.05481L14.1053 5.97642C14.2973 5.76655 14.5689 5.64697 14.8537 5.64697Z" fill="#1B1C1D"/>
<path d="M9.59952 1.33325C6.56501 1.33325 4.17306 3.73107 3.72799 6.7263C3.46846 6.71411 3.20428 6.80089 2.99721 6.98944C2.58385 7.36585 2.5546 8.0053 2.93187 8.41771L3.91841 9.4961C4.1104 9.70597 4.38206 9.82554 4.66686 9.82554C4.95167 9.82554 5.22333 9.70597 5.41532 9.4961L6.40185 8.41771C6.77913 8.0053 6.74988 7.36585 6.33652 6.98944C6.17631 6.84356 5.98191 6.7586 5.78193 6.73326C6.19472 4.74473 7.80823 3.35523 9.59952 3.35523C10.7379 3.35523 11.7837 3.90024 12.5162 4.81168C12.8662 5.24731 13.504 5.31733 13.9406 4.96807C14.3773 4.61881 14.4475 3.98253 14.0974 3.5469C13.0218 2.20838 11.4161 1.33325 9.59952 1.33325Z" fill="#1B1C1D"/>
<g opacity="0.4">
<path d="M28.0006 15.8248V21.2168C28.0006 26.3003 28.0006 28.8421 26.4177 30.4213C24.8347 32.0006 22.2871 32.0006 17.1917 32.0006C12.0963 32.0006 9.54866 32.0006 7.96574 30.4213C6.38281 28.8421 6.38281 26.3003 6.38281 21.2168V18.9072C6.38281 18.5492 6.38281 18.3702 6.41669 18.2221C6.53218 17.7173 6.92729 17.3231 7.43327 17.2079C7.58169 17.1741 7.76132 17.1741 8.12058 17.1741C10.2721 17.1741 11.3478 17.1741 12.2367 16.972C15.2753 16.2814 17.6481 13.9141 18.3403 10.8826C18.5428 9.99572 18.5428 8.92371 18.5428 6.77968C18.5428 6.42402 18.5428 6.24619 18.5774 6.09656C18.6945 5.59064 19.1074 5.18695 19.6168 5.08044C19.7674 5.04894 19.94 5.05243 20.2852 5.05941C23.3936 5.12227 25.1939 5.39931 26.4177 6.62022C28.0006 8.19948 28.0006 10.7413 28.0006 15.8248Z" fill="#1B1C1D"/>
</g>
<path d="M12.125 27.9563C12.125 27.3979 12.5787 26.9453 13.1383 26.9453H21.245C21.8046 26.9453 22.2583 27.3979 22.2583 27.9563C22.2583 28.5147 21.8046 28.9673 21.245 28.9673H13.1383C12.5787 28.9673 12.125 28.5147 12.125 27.9563Z" fill="#1B1C1D"/>
</g>
<defs>
<clipPath id="clip0_6189_99929">
<rect width="32" height="32" fill="white"/>
</clipPath>
</defs>
</svg>
