<svg width="56" height="56" viewBox="0 0 56 56" fill="none" xmlns="http://www.w3.org/2000/svg">
<path fill-rule="evenodd" clip-rule="evenodd" d="M41.615 17.9902C43.295 19.1277 44.45 20.8427 45.0275 23.0652L45.045 23.0477C49.28 23.7477 52.5175 27.4402 52.5175 31.8677C52.5175 36.8027 48.51 40.8102 43.575 40.8102H37.3275C36.365 40.8102 35.5775 40.0227 35.5775 39.0602C35.5775 38.0977 36.365 37.3102 37.3275 37.3102H43.575C46.585 37.3102 49.0175 34.8602 49.0175 31.8677C49.0175 28.8752 46.5675 26.4427 43.575 26.4427H42.0525L41.8425 24.9377C41.5625 23.0477 40.8275 21.6827 39.6725 20.8952C37.52 19.4427 34.4225 20.1602 34.4225 20.1602L32.8825 20.5277L32.3575 19.0402C29.26 10.3252 21.6475 12.7402 20.79 13.0377C14.8575 15.1377 14.1925 22.1202 14.1925 22.4177V25.6377H12.4425C8.6275 25.6377 7 27.0202 7 30.6777C7 34.3352 9.975 37.3102 13.6325 37.3102H18.7075C19.67 37.3102 20.4575 38.0977 20.4575 39.0602C20.4575 40.0227 19.67 40.8102 18.7075 40.8102H13.6325C8.05 40.8102 3.5 36.2602 3.5 30.6777C3.5 25.7602 6.0375 22.8202 10.6925 22.2427C10.7625 21.3677 11.7075 12.5477 19.635 9.7477C22.9775 8.5577 26.0575 8.6277 28.8225 9.9577C32.235 11.5852 34.195 14.7352 35.0875 16.5377C36.715 16.3977 39.3575 16.4852 41.615 17.9902ZM29.2426 25.2351L35.9451 31.6401H35.9276C36.6276 32.3051 36.6451 33.4076 35.9801 34.1076C35.3151 34.8076 34.2126 34.8251 33.5126 34.1601L29.7326 30.5551V47.5651C29.7326 48.5276 28.9451 49.3151 27.9826 49.3151C27.0201 49.3151 26.2326 48.5276 26.2326 47.5651V30.5551L22.4701 34.1601C22.1376 34.4926 21.7001 34.6501 21.2626 34.6501C20.8076 34.6501 20.3526 34.4751 20.0026 34.1076C19.3376 33.4076 19.3551 32.3051 20.0551 31.6401L26.7576 25.2351L28.0001 24.0626L29.2426 25.2351Z" fill="#606162"/>
</svg>
