<svg width="16" height="16" viewBox="0 0 16 16" fill="none" xmlns="http://www.w3.org/2000/svg">
<g id="arrow-right-tail">
<path id="Combined Shape" d="M13.705 8.30951L14.035 7.99951L8.86 3.13451C8.66 2.94451 8.345 2.95451 8.155 3.15451C7.965 3.35451 7.975 3.67451 8.175 3.85951L12.075 7.52951H2.5C2.225 7.52951 2 7.75451 2 8.02951C2 8.30451 2.225 8.52951 2.5 8.52951H12.005L8.175 12.1295C7.975 12.3195 7.965 12.6345 8.155 12.8345C8.255 12.9395 8.385 12.9895 8.52 12.9895C8.645 12.9895 8.765 12.9445 8.86 12.8545L13.545 8.44951C13.61 8.40951 13.665 8.35951 13.71 8.29451L13.705 8.30951Z" fill="#1B1C1D"/>
</g>
</svg>
