<svg width="17" height="16" viewBox="0 0 17 16" fill="none" xmlns="http://www.w3.org/2000/svg">
<g id="edit">
<path id="Combined Shape" d="M14.6351 5.13516L11.4001 1.90016C11.2051 1.70516 10.8901 1.70516 10.6951 1.90016L2.98009 9.61516C2.98009 9.61516 2.97509 9.62516 2.97009 9.63516C2.90009 9.71516 2.85009 9.81016 2.84009 9.92016L2.47509 13.5052C2.46009 13.6552 2.51509 13.8002 2.62009 13.9102C2.71509 14.0052 2.84009 14.0552 2.97509 14.0552C2.99009 14.0552 3.00509 14.0552 3.02509 14.0552L6.63009 13.7102C6.68009 13.7102 6.72509 13.6952 6.77009 13.6752C6.77009 13.6752 6.77009 13.6752 6.77509 13.6752C6.83009 13.6552 6.87509 13.6202 6.91509 13.5802C6.92009 13.5752 6.93009 13.5752 6.93509 13.5702L14.6501 5.85516C14.8451 5.66016 14.8451 5.34516 14.6501 5.15016L14.6351 5.13516ZM3.52009 12.9952L3.71509 11.0652L5.46009 12.8102L3.52009 12.9952ZM6.56509 12.4952L4.03509 9.96516L11.0451 2.95516L13.5751 5.48516L6.56509 12.4952Z" fill="#606162"/>
</g>
</svg>
