<svg width="28" height="28" viewBox="0 0 28 28" fill="none" xmlns="http://www.w3.org/2000/svg">
<path d="M25.9962 7.07878L22.3037 3.30753L18.6112 7.07878C18.2699 7.42878 18.2787 7.98003 18.6287 8.31253C18.9787 8.65378 19.5299 8.64503 19.8624 8.29503L21.4287 6.69378V19.3638C21.4287 21.2275 19.9587 22.7413 18.1474 22.7413C16.3362 22.7413 14.8662 21.2275 14.8662 19.3638V8.61003C14.8662 5.78378 12.6087 3.48253 9.83494 3.48253C7.06119 3.48253 4.80369 5.78378 4.80369 8.61003V21.1925L3.23744 19.5913C2.89619 19.25 2.34494 19.2413 2.00369 19.5738C1.66244 19.915 1.65369 20.4663 1.98619 20.8075L5.67869 24.5788L9.37119 20.8075C9.71244 20.4663 9.70369 19.9063 9.35369 19.5738C9.00369 19.2413 8.45244 19.2413 8.11994 19.5913L6.55369 21.1925V8.61003C6.55369 6.74628 8.02369 5.23253 9.83494 5.23253C11.6462 5.23253 13.1162 6.74628 13.1162 8.61003V19.3638C13.1162 22.19 15.3737 24.4913 18.1474 24.4913C20.9212 24.4913 23.1787 22.19 23.1787 19.3638V6.70253L24.7449 8.30378C24.9199 8.47878 25.1474 8.56628 25.3662 8.56628C25.5849 8.56628 25.8037 8.48753 25.9787 8.31253C26.3199 7.97128 26.3287 7.42003 25.9962 7.07878Z" fill="#1B1C1D"/>
</svg>
