<svg width="16" height="16" viewBox="0 0 16 16" fill="none" xmlns="http://www.w3.org/2000/svg">
<path d="M8.70497 7.50003L13.85 2.35503C14.045 2.16003 14.045 1.84503 13.85 1.65003C13.655 1.45503 13.34 1.45503 13.145 1.65003L7.99997 6.79503L2.85497 1.64503C2.65997 1.45003 2.34497 1.45003 2.14997 1.64503C1.95497 1.84003 1.95497 2.15503 2.14997 2.35003L7.29497 7.49503L2.14997 12.64C1.95497 12.835 1.95497 13.15 2.14997 13.345C2.24997 13.445 2.37497 13.49 2.50497 13.49C2.63497 13.49 2.75997 13.44 2.85997 13.345L8.00497 8.20003L13.15 13.345C13.25 13.445 13.375 13.49 13.505 13.49C13.635 13.49 13.76 13.44 13.86 13.345C14.055 13.15 14.055 12.835 13.86 12.64L8.71497 7.49503L8.70497 7.50003Z" fill="#1B1C1D"/>
</svg>
