<svg width="16" height="16" viewBox="0 0 16 16" fill="none" xmlns="http://www.w3.org/2000/svg">
<g id="edit">
<path id="Combined Shape" d="M14.1351 5.13503L10.9001 1.90003C10.7051 1.70503 10.3901 1.70503 10.1951 1.90003L2.48009 9.61503C2.48009 9.61503 2.47509 9.62503 2.47009 9.63503C2.40009 9.71503 2.35009 9.81003 2.34009 9.92003L1.97509 13.505C1.96009 13.655 2.01509 13.8 2.12009 13.91C2.21509 14.005 2.34009 14.055 2.47509 14.055C2.49009 14.055 2.50509 14.055 2.52509 14.055L6.13009 13.71C6.18009 13.71 6.22509 13.695 6.27009 13.675C6.27009 13.675 6.27009 13.675 6.27509 13.675C6.33009 13.655 6.37509 13.62 6.41509 13.58C6.42009 13.575 6.43009 13.575 6.43509 13.57L14.1501 5.85503C14.3451 5.66003 14.3451 5.34503 14.1501 5.15003L14.1351 5.13503ZM3.02009 12.995L3.21509 11.065L4.96009 12.81L3.02009 12.995ZM6.06509 12.495L3.53509 9.96503L10.5451 2.95503L13.0751 5.48503L6.06509 12.495Z" fill="#606162"/>
</g>
</svg>
