<svg width="28" height="28" viewBox="0 0 28 28" fill="none" xmlns="http://www.w3.org/2000/svg">
<path d="M23.275 10.8063C22.1725 10.8063 21.2538 11.5413 20.9563 12.5475L18.2963 12.7575C17.9463 11.4625 17.0625 10.395 15.89 9.79129L16.8263 6.60629C18.0775 6.50129 19.0575 5.46879 19.0575 4.19129C19.0575 2.85254 17.9638 1.75879 16.625 1.75879C15.2863 1.75879 14.1925 2.85254 14.1925 4.19129C14.1925 4.97879 14.5688 5.67004 15.1463 6.11629L14.21 9.30129C14.0525 9.28379 13.895 9.27504 13.7375 9.27504C12.3375 9.27504 11.0863 9.88754 10.22 10.85L8.28629 9.67754C8.34754 9.44129 8.38254 9.20504 8.38254 8.95129C8.38254 7.30629 7.04379 5.96754 5.39879 5.96754C3.75379 5.96754 2.41504 7.30629 2.41504 8.95129C2.41504 10.5963 3.75379 11.935 5.39879 11.935C6.16004 11.935 6.85129 11.6375 7.37629 11.1738L9.31879 12.3463C9.12629 12.8625 9.01254 13.4138 9.01254 14C9.01254 14.84 9.24004 15.6363 9.62504 16.3188L7.65629 17.9813C7.30629 17.7888 6.91254 17.675 6.49254 17.675C5.15379 17.675 4.06004 18.7688 4.06004 20.1075C4.06004 21.4463 5.15379 22.54 6.49254 22.54C7.83129 22.54 8.92504 21.4463 8.92504 20.1075C8.92504 19.8275 8.87254 19.565 8.78504 19.32L10.7538 17.6575C11.5675 18.3225 12.6088 18.725 13.7375 18.725C14.0875 18.725 14.42 18.6813 14.7438 18.6113L15.7588 21C15.1113 21.5513 14.6913 22.3563 14.6913 23.2663C14.6913 24.9113 16.03 26.25 17.675 26.25C19.32 26.25 20.6588 24.9113 20.6588 23.2663C20.6588 21.6213 19.32 20.2825 17.675 20.2825C17.57 20.2825 17.4738 20.3 17.3688 20.3088L16.3538 17.92C17.4913 17.1588 18.2788 15.9163 18.4363 14.49L21.0875 14.28C21.4813 15.0938 22.3125 15.6625 23.275 15.6625C24.6138 15.6625 25.7075 14.5688 25.7075 13.23C25.7075 11.8913 24.6138 10.7975 23.275 10.7975V10.8063ZM16.6338 3.50879C17.01 3.50879 17.3163 3.81504 17.3163 4.19129C17.3163 4.56754 17.01 4.87379 16.6338 4.87379C16.2575 4.87379 15.9513 4.56754 15.9513 4.19129C15.9513 3.81504 16.2575 3.50879 16.6338 3.50879ZM5.40754 10.1938C4.72504 10.1938 4.17379 9.64254 4.17379 8.96004C4.17379 8.27754 4.72504 7.72629 5.40754 7.72629C6.09004 7.72629 6.64129 8.27754 6.64129 8.96004C6.64129 9.64254 6.09004 10.1938 5.40754 10.1938ZM18.9175 23.275C18.9175 23.9575 18.3663 24.5088 17.6838 24.5088C17.0013 24.5088 16.45 23.9575 16.45 23.275C16.45 22.5925 17.0013 22.0413 17.6838 22.0413C18.3663 22.0413 18.9175 22.5925 18.9175 23.275ZM6.49254 20.7988C6.11629 20.7988 5.81004 20.4925 5.81004 20.1163C5.81004 19.74 6.11629 19.4338 6.49254 19.4338C6.86879 19.4338 7.17504 19.74 7.17504 20.1163C7.17504 20.4925 6.86879 20.7988 6.49254 20.7988ZM13.7463 16.9838C12.1013 16.9838 10.7713 15.645 10.7713 14.0088C10.7713 12.3725 12.11 11.0338 13.7463 11.0338C15.3825 11.0338 16.7213 12.3725 16.7213 14.0088C16.7213 15.645 15.3825 16.9838 13.7463 16.9838ZM23.2838 13.93C22.9075 13.93 22.6013 13.6238 22.6013 13.2475C22.6013 12.8713 22.9075 12.565 23.2838 12.565C23.66 12.565 23.9663 12.8713 23.9663 13.2475C23.9663 13.6238 23.66 13.93 23.2838 13.93Z" fill="#1B1C1D"/>
</svg>
