<svg width="32" height="32" viewBox="0 0 32 32" fill="none" xmlns="http://www.w3.org/2000/svg">
<g opacity="0.5">
<path d="M9.60591 10.083C10.02 9.71754 10.0594 9.08561 9.69392 8.67153C9.32846 8.25746 8.69652 8.21806 8.28245 8.58352C5.86202 10.7198 4.33301 13.8486 4.33301 17.3333C4.33301 17.8856 4.78072 18.3333 5.33301 18.3333C5.88529 18.3333 6.33301 17.8856 6.33301 17.3333C6.33301 14.4462 7.59738 11.8558 9.60591 10.083Z" fill="#1B1C1D"/>
<path d="M23.7169 8.58352C23.3028 8.21806 22.6709 8.25746 22.3054 8.67153C21.94 9.08561 21.9794 9.71754 22.3934 10.083C24.402 11.8558 25.6663 14.4462 25.6663 17.3333C25.6663 17.8856 26.1141 18.3333 26.6663 18.3333C27.2186 18.3333 27.6663 17.8856 27.6663 17.3333C27.6663 13.8486 26.1373 10.7198 23.7169 8.58352Z" fill="#1B1C1D"/>
<path d="M13.5823 26.6955C13.0474 26.5578 12.5022 26.8798 12.3646 27.4147C12.2269 27.9495 12.5489 28.4947 13.0837 28.6324C14.0168 28.8725 14.9941 29 15.9997 29C17.0053 29 17.9825 28.8725 18.9156 28.6324C19.4505 28.4947 19.7724 27.9495 19.6348 27.4147C19.4971 26.8798 18.9519 26.5578 18.4171 26.6955C17.6455 26.8941 16.8357 27 15.9997 27C15.1637 27 14.3538 26.8941 13.5823 26.6955Z" fill="#1B1C1D"/>
</g>
<path d="M11.9997 8C11.9997 10.2091 13.7905 12 15.9997 12C18.2088 12 19.9997 10.2091 19.9997 8C19.9997 5.79086 18.2088 4 15.9997 4C13.7905 4 11.9997 5.79086 11.9997 8Z" fill="#1B1C1D"/>
<path d="M3.33301 24C3.33301 26.2091 5.12387 28 7.33301 28C9.54215 28 11.333 26.2091 11.333 24C11.333 21.7909 9.54215 20 7.33301 20C5.12387 20 3.33301 21.7909 3.33301 24Z" fill="#1B1C1D"/>
<path d="M24.6663 28C22.4572 28 20.6663 26.2091 20.6663 24C20.6663 21.7909 22.4572 20 24.6663 20C26.8755 20 28.6663 21.7909 28.6663 24C28.6663 26.2091 26.8755 28 24.6663 28Z" fill="#1B1C1D"/>
</svg>
