<svg width="28" height="28" viewBox="0 0 28 28" fill="none" xmlns="http://www.w3.org/2000/svg">
<path fill-rule="evenodd" clip-rule="evenodd" d="M22.2862 10.9024L24.4387 11.0337L24.4124 11.0512C25.4449 11.1212 26.2499 11.9787 26.2499 13.0112V14.9537C26.2499 15.9687 25.4887 16.8087 24.4737 16.9049L22.2687 17.1062C22.1987 17.2987 22.1199 17.4912 22.0324 17.6837L23.4587 19.3024C24.1499 20.0812 24.1062 21.2624 23.3799 21.9887L22.0062 23.3624C21.6299 23.7474 21.1224 23.9399 20.6237 23.9399C20.1862 23.9399 19.7399 23.7912 19.3724 23.4849L17.6662 22.0674C17.602 22.0937 17.5378 22.1209 17.4736 22.1481C17.3453 22.2026 17.217 22.257 17.0887 22.3037L16.9574 24.4562C16.8874 25.4887 16.0299 26.2937 14.9974 26.2937H13.0549C12.0399 26.2937 11.1999 25.5324 11.1037 24.5174L10.9024 22.3037C10.7012 22.2337 10.4999 22.1462 10.3074 22.0587L8.60118 23.4762C8.23368 23.7824 7.79618 23.9312 7.34993 23.9312C6.85118 23.9312 6.35243 23.7387 5.96743 23.3537L4.59368 21.9799C3.85868 21.2449 3.82368 20.0724 4.50618 19.2937L5.93243 17.6749C5.84493 17.4912 5.76618 17.2899 5.69618 17.0974L3.49118 16.8962C2.47618 16.7999 1.70618 15.9687 1.70618 14.9449V13.0024C1.70618 11.9699 2.51118 11.1037 3.54368 11.0424L5.69618 10.9112C5.77493 10.7099 5.85368 10.5174 5.94118 10.3249L4.52368 8.62742C3.87618 7.83992 3.92868 6.70242 4.64618 5.98492L6.01993 4.61117C6.75493 3.88492 7.93618 3.84992 8.70618 4.53242L10.3162 5.95867C10.4824 5.87992 10.6487 5.80992 10.8149 5.74867L11.1124 3.48242C11.2087 2.50242 12.0399 1.73242 13.0637 1.73242H15.0062C16.0474 1.73242 16.9049 2.53742 16.9662 3.56992L17.0974 5.71367C17.2899 5.78367 17.4824 5.86242 17.6662 5.94992L19.2762 4.52367C20.0549 3.83242 21.2362 3.87617 21.9624 4.60242L23.3362 5.97617C24.0537 6.70242 24.1062 7.83117 23.4587 8.61867L22.0412 10.3162C22.1287 10.5087 22.2162 10.7012 22.2862 10.9024ZM24.3337 15.1462C24.4474 15.1374 24.5262 15.0412 24.5262 14.9362L24.5349 14.9537V13.0112C24.5349 12.8974 24.4562 12.8012 24.3424 12.8012L21.6212 12.6262C21.2624 12.5999 20.9387 12.3724 20.8337 12.0049C20.6937 11.5237 20.5012 11.0599 20.2649 10.6224C20.0899 10.2987 20.1424 9.91367 20.3699 9.64242L22.1374 7.51617C22.1987 7.43742 22.1987 7.31492 22.1199 7.23617L20.7462 5.86242C20.6674 5.79242 20.5362 5.79242 20.4574 5.86242L18.4099 7.66492C18.2524 7.81367 18.0424 7.89242 17.8324 7.89242C17.6924 7.89242 17.5437 7.85742 17.4124 7.78742C16.9749 7.54242 16.5112 7.34992 16.0299 7.20992C15.6624 7.09617 15.4349 6.78117 15.4087 6.42242L15.2424 3.70117C15.2337 3.58742 15.1462 3.49992 15.0324 3.49992H13.0899C12.9762 3.49992 12.8887 3.58742 12.8799 3.69242L12.5124 6.48367V6.50992C12.4687 6.84242 12.2412 7.13117 11.9087 7.23617C11.4624 7.37617 11.0249 7.55992 10.6224 7.77867C10.4912 7.84867 10.3424 7.88367 10.2024 7.88367C9.99243 7.88367 9.78243 7.80492 9.62493 7.66492L7.57743 5.85367C7.48993 5.77492 7.36743 5.77492 7.28868 5.85367L5.91493 7.22742C5.84493 7.29742 5.83618 7.41992 5.90618 7.50742L7.67368 9.63367C7.90118 9.90492 7.95368 10.2899 7.77868 10.6137C7.54243 11.0512 7.34993 11.5149 7.20993 11.9962C7.10493 12.3549 6.78118 12.5912 6.42243 12.6174L3.70118 12.7837C3.58743 12.7924 3.49993 12.8799 3.49993 12.9937V14.9362C3.49993 15.0499 3.58743 15.1374 3.69243 15.1462L6.43993 15.3999V15.4437C6.78993 15.4699 7.11368 15.6974 7.21868 16.0562C7.35868 16.5287 7.54243 16.9749 7.77868 17.4037C7.96243 17.7449 7.90118 18.1387 7.65618 18.4099L5.84493 20.4574C5.77493 20.5449 5.77493 20.6674 5.85368 20.7462L7.22743 22.1199C7.29743 22.1899 7.42868 22.1987 7.50743 22.1287L9.63368 20.3612C9.89618 20.1337 10.2899 20.0812 10.6137 20.2562C11.0512 20.4924 11.5149 20.6849 11.9962 20.8249C12.3549 20.9299 12.5912 21.2449 12.6174 21.5949L12.8712 24.3512C12.8799 24.4562 12.9762 24.5437 13.0812 24.5437H15.0237C15.1374 24.5437 15.2337 24.4562 15.2337 24.3424L15.3999 21.6212C15.4262 21.2624 15.6537 20.9299 16.0212 20.8249C16.5024 20.6849 16.9662 20.4924 17.4037 20.2562C17.7274 20.0812 18.1124 20.1337 18.3837 20.3612L20.5099 22.1287C20.5887 22.1987 20.7112 22.1899 20.7899 22.1112L22.1637 20.7374C22.2337 20.6587 22.2337 20.5274 22.1637 20.4487L20.3612 18.4012C20.1249 18.1299 20.0549 17.7362 20.2387 17.4037C20.4837 16.9662 20.6762 16.5024 20.8162 16.0212C20.9212 15.6624 21.2274 15.4262 21.5774 15.3999L24.3337 15.1462ZM9.30988 13.9998C9.30988 11.4098 11.4099 9.30984 13.9999 9.30984C16.5899 9.30984 18.6899 11.4098 18.6899 13.9998C18.6899 16.5898 16.5899 18.6898 13.9999 18.6898C11.4099 18.6898 9.30988 16.5898 9.30988 13.9998ZM11.0599 13.9998C11.0599 15.6186 12.3811 16.9398 13.9999 16.9398C15.6186 16.9398 16.9399 15.6186 16.9399 13.9998C16.9399 12.3811 15.6186 11.0598 13.9999 11.0598C12.3811 11.0598 11.0599 12.3811 11.0599 13.9998Z" fill="#1B1C1D"/>
</svg>
