<svg width="32" height="32" viewBox="0 0 32 32" fill="none" xmlns="http://www.w3.org/2000/svg">
<path opacity="0.5" d="M8.34625 28.5178H7.99967C6.7426 28.5178 6.11406 28.5178 5.72353 28.1273C5.33301 27.7368 5.33301 27.1083 5.33301 25.8512V24.3686C5.33301 23.6772 5.33301 23.3316 5.51058 23.0229C5.68815 22.7142 5.95604 22.5584 6.49181 22.2468C10.0191 20.1953 15.0284 19.0404 18.3718 21.0345C18.5964 21.1685 18.7984 21.3302 18.9711 21.5242C19.7152 22.36 19.661 23.6215 18.8033 24.37C18.6223 24.5281 18.4292 24.6479 18.2348 24.6896C18.3946 24.6711 18.5477 24.6499 18.6938 24.6265C19.909 24.4327 20.9291 23.7833 21.8629 23.0779L24.2725 21.2577C25.122 20.616 26.3827 20.6159 27.2324 21.2574C27.9973 21.8349 28.2311 22.7859 27.7476 23.561C27.1837 24.4649 26.3891 25.6213 25.6262 26.3279C24.8623 27.0355 23.7248 27.6672 22.7963 28.1154C21.7677 28.6118 20.6314 28.8979 19.4756 29.085C17.1315 29.4645 14.6884 29.4065 12.3681 28.9285C11.0564 28.6583 9.69407 28.5178 8.34625 28.5178Z" fill="#1B1C1D"/>
<path d="M14.482 5.8178C15.1576 4.60593 15.4953 4 16.0003 4C16.5053 4 16.8431 4.60593 17.5186 5.8178L17.6934 6.13132C17.8854 6.4757 17.9814 6.64789 18.131 6.7615C18.2807 6.87511 18.4671 6.91728 18.8399 7.00163L19.1792 7.07842C20.4911 7.37523 21.147 7.52364 21.303 8.02546C21.4591 8.52728 21.0119 9.05017 20.1176 10.096L19.8862 10.3665C19.6321 10.6637 19.505 10.8123 19.4479 10.9961C19.3907 11.1799 19.4099 11.3782 19.4483 11.7747L19.4833 12.1357C19.6185 13.531 19.6861 14.2286 19.2776 14.5388C18.869 14.8489 18.2549 14.5662 17.0266 14.0006L16.7089 13.8543C16.3598 13.6936 16.1853 13.6133 16.0003 13.6133C15.8153 13.6133 15.6408 13.6936 15.2918 13.8543L14.974 14.0006C13.7458 14.5662 13.1316 14.8489 12.7231 14.5388C12.3145 14.2286 12.3821 13.531 12.5173 12.1357L12.5523 11.7747C12.5907 11.3782 12.61 11.1799 12.5528 10.9961C12.4956 10.8123 12.3686 10.6637 12.1144 10.3665L11.883 10.096C10.9887 9.05017 10.5416 8.52728 10.6976 8.02546C10.8537 7.52364 11.5096 7.37523 12.8214 7.07842L13.1608 7.00163C13.5336 6.91728 13.72 6.87511 13.8696 6.7615C14.0193 6.64789 14.1153 6.4757 14.3072 6.13132L14.482 5.8178Z" fill="#1B1C1D"/>
<path d="M25.9078 11.5756C26.2456 10.9696 26.4145 10.6667 26.667 10.6667C26.9195 10.6667 27.0884 10.9696 27.4261 11.5756L27.5135 11.7323C27.6095 11.9045 27.6575 11.9906 27.7323 12.0474C27.8072 12.1042 27.9004 12.1253 28.0868 12.1675L28.2565 12.2059C28.9124 12.3543 29.2403 12.4285 29.3183 12.6794C29.3964 12.9303 29.1728 13.1918 28.7256 13.7146L28.6099 13.8499C28.4829 13.9985 28.4193 14.0728 28.3908 14.1647C28.3622 14.2566 28.3718 14.3558 28.391 14.554L28.4085 14.7345C28.4761 15.4322 28.5099 15.781 28.3056 15.9361C28.1013 16.0911 27.7943 15.9497 27.1801 15.667L27.0213 15.5938C26.8467 15.5135 26.7595 15.4733 26.667 15.4733C26.5745 15.4733 26.4872 15.5135 26.3127 15.5938L26.1538 15.667C25.5397 15.9497 25.2326 16.0911 25.0284 15.9361C24.8241 15.781 24.8579 15.4322 24.9255 14.7345L24.943 14.554C24.9622 14.3558 24.9718 14.2566 24.9432 14.1647C24.9146 14.0728 24.8511 13.9985 24.724 13.8499L24.6084 13.7146C24.1612 13.1918 23.9376 12.9303 24.0156 12.6794C24.0937 12.4285 24.4216 12.3543 25.0775 12.2059L25.2472 12.1675C25.4336 12.1253 25.5268 12.1042 25.6016 12.0474C25.6765 11.9906 25.7245 11.9045 25.8204 11.7323L25.9078 11.5756Z" fill="#1B1C1D"/>
<path d="M4.5745 11.5756C4.91228 10.9696 5.08116 10.6667 5.33366 10.6667C5.58616 10.6667 5.75504 10.9696 6.09282 11.5756L6.1802 11.7323C6.27619 11.9045 6.32418 11.9906 6.39901 12.0474C6.47384 12.1042 6.56703 12.1253 6.75342 12.1675L6.92312 12.2059C7.57903 12.3543 7.90699 12.4285 7.98501 12.6794C8.06304 12.9303 7.83946 13.1918 7.3923 13.7146L7.27661 13.8499C7.14955 13.9985 7.08601 14.0728 7.05743 14.1647C7.02885 14.2566 7.03845 14.3558 7.05766 14.554L7.07515 14.7345C7.14276 15.4322 7.17656 15.781 6.97229 15.9361C6.76801 16.0911 6.46095 15.9497 5.84681 15.667L5.68793 15.5938C5.51341 15.5135 5.42615 15.4733 5.33366 15.4733C5.24116 15.4733 5.15391 15.5135 4.97939 15.5938L4.82051 15.667C4.20637 15.9497 3.89931 16.0911 3.69503 15.9361C3.49076 15.781 3.52456 15.4322 3.59216 14.7345L3.60965 14.554C3.62887 14.3558 3.63847 14.2566 3.60989 14.1647C3.58131 14.0728 3.51777 13.9985 3.3907 13.8499L3.27502 13.7146C2.82786 13.1918 2.60428 12.9303 2.6823 12.6794C2.76033 12.4285 3.08829 12.3543 3.7442 12.2059L3.9139 12.1675C4.10029 12.1253 4.19348 12.1042 4.26831 12.0474C4.34314 11.9906 4.39113 11.9045 4.48712 11.7323L4.5745 11.5756Z" fill="#1B1C1D"/>
</svg>
