<svg width="24" height="24" viewBox="0 0 24 24" fill="none" xmlns="http://www.w3.org/2000/svg">
<path fill-rule="evenodd" clip-rule="evenodd" d="M16.59 12.2175L12 17.9475H11.9925L7.41002 12.2175C7.15502 11.8875 7.20752 11.4225 7.53002 11.16C7.86002 10.905 8.32502 10.9575 8.58752 11.28L11.34 14.7225V3.69751C11.34 3.28501 11.6775 2.94751 12.09 2.94751C12.5025 2.94751 12.84 3.28501 12.84 3.69751V14.4975L15.4125 11.28C15.675 10.9575 16.1475 10.8975 16.47 11.16C16.7925 11.4225 16.845 11.895 16.59 12.2175ZM21 15.9301C21 15.5176 21.3375 15.1801 21.75 15.1801C22.1625 15.1801 22.5 15.5176 22.5 15.9301V20.1376C22.5 20.5501 22.1625 20.8876 21.75 20.8876H2.25C1.8375 20.8876 1.5 20.5501 1.5 20.1376V15.9301C1.5 15.5176 1.8375 15.1801 2.25 15.1801C2.6625 15.1801 3 15.5176 3 15.9301V19.3876H21V15.9301Z" fill="#1B1C1D"/>
</svg>
