<svg width="28" height="28" viewBox="0 0 28 28" fill="none" xmlns="http://www.w3.org/2000/svg">
<path fill-rule="evenodd" clip-rule="evenodd" d="M23.3713 8.27746L17.1588 2.00371C16.9925 1.83746 16.7737 1.74121 16.5375 1.74121H5.25C4.76875 1.74121 4.375 2.13496 4.375 2.61621V25.3662C4.375 25.8475 4.76875 26.2412 5.25 26.2412H22.75C23.2313 26.2412 23.625 25.8475 23.625 25.3662V8.89871C23.625 8.67121 23.5375 8.44371 23.3713 8.28621V8.27746ZM17.36 4.69871L20.5975 7.96246H17.36V4.69871ZM6.125 24.5V3.49996H15.61V8.83746C15.61 9.31871 16.0037 9.71246 16.485 9.71246H21.875V24.5H6.125ZM19.2763 14H8.77628C8.29503 14 7.90128 14.3937 7.90128 14.875C7.90128 15.3562 8.29503 15.75 8.77628 15.75H19.2763C19.7575 15.75 20.1513 15.3562 20.1513 14.875C20.1513 14.3937 19.7575 14 19.2763 14ZM8.77628 18.8125H19.2763C19.7575 18.8125 20.1513 19.2062 20.1513 19.6875C20.1513 20.1687 19.7575 20.5625 19.2763 20.5625H8.77628C8.29503 20.5625 7.90128 20.1687 7.90128 19.6875C7.90128 19.2062 8.29503 18.8125 8.77628 18.8125Z" fill="#1B1C1D"/>
</svg>
