<svg width="16" height="20" viewBox="0 0 16 20" fill="none" xmlns="http://www.w3.org/2000/svg">
<path fill-rule="evenodd" clip-rule="evenodd" d="M14.5 5.275H12.38C12.285 4.005 11.2 3 9.865 3H6.135C4.8 3 3.715 4.005 3.62 5.275H1.5C1.225 5.275 1 5.5 1 5.775V8.07C1 8.345 1.225 8.57 1.5 8.57H2.5L3.115 16.535C3.135 16.795 3.35 16.995 3.615 16.995H12.39C12.65 16.995 12.87 16.795 12.89 16.535L13.505 8.57H14.505C14.78 8.57 15.005 8.345 15.005 8.07V5.775C15.005 5.5 14.78 5.275 14.505 5.275H14.5ZM6.135 4H9.865C10.65 4 11.29 4.56 11.38 5.275H4.62C4.715 4.56 5.355 4 6.135 4ZM11.925 16H4.075L3.505 8.57H12.495L11.925 16ZM14 7.57H13.15C13.15 7.57 13.105 7.55 13.08 7.55C13.02 7.545 12.96 7.55 12.9 7.57H3.1C3.045 7.555 2.985 7.545 2.925 7.55C2.90873 7.55 2.89246 7.55635 2.87757 7.56217C2.86958 7.56529 2.86198 7.56825 2.855 7.57H2.005V6.275H14.005V7.57H14ZM6.59497 15.15C6.86997 15.15 7.09497 14.925 7.09497 14.65V9.90002C7.09497 9.62502 6.86997 9.40002 6.59497 9.40002C6.31997 9.40002 6.09497 9.62502 6.09497 9.90002V14.65C6.09497 14.925 6.31997 15.15 6.59497 15.15ZM9.90503 14.65C9.90503 14.925 9.68003 15.15 9.40503 15.15C9.13003 15.15 8.90503 14.925 8.90503 14.65V9.90002C8.90503 9.62502 9.13003 9.40002 9.40503 9.40002C9.68003 9.40002 9.90503 9.62502 9.90503 9.90002V14.65Z" fill="#1B1C1D"/>
</svg>
