<svg width="12" height="12" viewBox="0 0 12 12" fill="none" xmlns="http://www.w3.org/2000/svg">
<path fill-rule="evenodd" clip-rule="evenodd" d="M5.62499 2.34023L4.15874 4.11023C4.02749 4.26773 3.79124 4.29023 3.62999 4.15898C3.47249 4.02773 3.44999 3.79148 3.58124 3.63023L5.99999 0.708984L8.41874 3.63023C8.54999 3.79148 8.53124 4.02773 8.36999 4.15898C8.29874 4.21523 8.21249 4.24523 8.12999 4.24523C8.02124 4.24523 7.91624 4.20023 7.84124 4.11023L6.37499 2.34023V8.06273C6.37499 8.26898 6.20624 8.43773 5.99999 8.43773C5.79374 8.43773 5.62499 8.26898 5.62499 8.06273V2.34023ZM10.5 7.86017C10.5 7.65392 10.6687 7.48517 10.875 7.48517C11.0813 7.48517 11.25 7.65392 11.25 7.86017V10.1102C11.25 10.3164 11.0813 10.4852 10.875 10.4852H1.125C0.91875 10.4852 0.75 10.3164 0.75 10.1102V7.86017C0.75 7.65392 0.91875 7.48517 1.125 7.48517C1.33125 7.48517 1.5 7.65392 1.5 7.86017V9.73517H10.5V7.86017Z" fill="white"/>
</svg>
