<svg width="36" height="36" viewBox="0 0 36 36" fill="none" xmlns="http://www.w3.org/2000/svg">
  <path opacity="0.5"
    d="M5.1967 5.1967C3 7.3934 3 10.9289 3 18C3 25.0711 3 28.6066 5.1967 30.8033C7.3934 33 10.9289 33 18 33C25.0711 33 28.6066 33 30.8033 30.8033C33 28.6066 33 25.0711 33 18C33 10.9289 33 7.3934 30.8033 5.1967C28.6066 3 25.0711 3 18 3C10.9289 3 7.3934 3 5.1967 5.1967Z"
    fill="#0070D2" />
  <path
    d="M18.0144 7.875C12.9361 7.875 8.75 11.6998 8.19087 16.625H7.50003C7.04487 16.625 6.63456 16.8993 6.46052 17.3198C6.28648 17.7404 6.38302 18.2244 6.70508 18.546L8.45747 20.296C8.89669 20.7347 9.60816 20.7347 10.0474 20.296L11.7998 18.546C12.1218 18.2244 12.2184 17.7404 12.0443 17.3198C11.8703 16.8993 11.46 16.625 11.0048 16.625H10.46C11.0046 12.9483 14.1782 10.125 18.0144 10.125C20.3115 10.125 22.3703 11.1361 23.7718 12.7402C24.1806 13.2081 24.8913 13.256 25.3592 12.8472C25.8271 12.4384 25.875 11.7277 25.4662 11.2598C23.6552 9.18706 20.9874 7.875 18.0144 7.875Z"
    fill="#0070D2" />
  <path
    d="M27.5427 15.704C27.1035 15.2653 26.392 15.2653 25.9528 15.704L24.2004 17.454C23.8783 17.7756 23.7818 18.2596 23.9558 18.6802C24.1299 19.1007 24.5402 19.375 24.9953 19.375H25.5402C24.9955 23.0517 21.8219 25.875 17.9858 25.875C15.6887 25.875 13.6298 24.8639 12.2283 23.2598C11.8195 22.7919 11.1088 22.744 10.6409 23.1528C10.173 23.5616 10.1251 24.2723 10.5339 24.7402C12.3449 26.8129 15.0128 28.125 17.9858 28.125C23.0641 28.125 27.2501 24.3002 27.8093 19.375H28.5001C28.9553 19.375 29.3656 19.1007 29.5396 18.6802C29.7137 18.2596 29.6171 17.7756 29.2951 17.454L27.5427 15.704Z"
    fill="#0070D2" />
</svg>