<svg width="37" height="36" viewBox="0 0 37 36" fill="none" xmlns="http://www.w3.org/2000/svg">
  <path opacity="0.5"
    d="M5.5302 30.8033C7.72689 33 11.2624 33 18.3335 33C25.4046 33 28.9401 33 31.1368 30.8033C33.3335 28.6066 33.3335 25.0711 33.3335 18C33.3335 10.9289 33.3335 7.3934 31.1368 5.1967C28.9401 3 25.4046 3 18.3335 3C11.2624 3 7.72689 3 5.5302 5.1967C3.3335 7.3934 3.3335 10.9289 3.3335 18C3.3335 25.0711 3.3335 28.6066 5.5302 30.8033Z"
    fill="#0070D2" />
  <path fill-rule="evenodd" clip-rule="evenodd"
    d="M12.3335 8.625C12.9548 8.625 13.4585 9.12868 13.4585 9.75L13.4585 11.625H15.3335C15.9548 11.625 16.4585 12.1287 16.4585 12.75C16.4585 13.3713 15.9548 13.875 15.3335 13.875H13.4585V15.75C13.4585 16.3713 12.9548 16.875 12.3335 16.875C11.7122 16.875 11.2085 16.3713 11.2085 15.75L11.2085 13.875H9.3335C8.71218 13.875 8.2085 13.3713 8.2085 12.75C8.2085 12.1287 8.71218 11.625 9.3335 11.625H11.2085V9.75C11.2085 9.12868 11.7122 8.625 12.3335 8.625ZM20.2085 12.75C20.2085 12.1287 20.7122 11.625 21.3335 11.625H27.3335C27.9548 11.625 28.4585 12.1287 28.4585 12.75C28.4585 13.3713 27.9548 13.875 27.3335 13.875H21.3335C20.7122 13.875 20.2085 13.3713 20.2085 12.75ZM20.2085 21.75C20.2085 21.1287 20.7122 20.625 21.3335 20.625H27.3335C27.9548 20.625 28.4585 21.1287 28.4585 21.75C28.4585 22.3713 27.9548 22.875 27.3335 22.875H21.3335C20.7122 22.875 20.2085 22.3713 20.2085 21.75ZM9.288 20.9545C9.72734 20.5152 10.4397 20.5152 10.879 20.9545L12.3335 22.4091L13.788 20.9546C14.2273 20.5152 14.9397 20.5152 15.379 20.9546C15.8183 21.3939 15.8183 22.1062 15.379 22.5455L13.9245 24L15.379 25.4545C15.8183 25.8939 15.8183 26.6062 15.379 27.0455C14.9396 27.4849 14.2273 27.4849 13.788 27.0455L12.3335 25.591L10.879 27.0455C10.4397 27.4849 9.72736 27.4849 9.28802 27.0455C8.84868 26.6062 8.84868 25.8939 9.28802 25.4545L10.7425 24L9.288 22.5455C8.84866 22.1062 8.84866 21.3939 9.288 20.9545ZM20.2085 26.25C20.2085 25.6287 20.7122 25.125 21.3335 25.125H27.3335C27.9548 25.125 28.4585 25.6287 28.4585 26.25C28.4585 26.8713 27.9548 27.375 27.3335 27.375H21.3335C20.7122 27.375 20.2085 26.8713 20.2085 26.25Z"
    fill="#0070D2" />
</svg>