<svg width="16" height="11" viewBox="0 0 16 11" fill="none" xmlns="http://www.w3.org/2000/svg">
  <path
    d="M0.125 9.00937C0.125 8.90064 0.213144 8.8125 0.321875 8.8125H3.86562C3.97436 8.8125 4.0625 8.90064 4.0625 9.00937V10.5844C4.0625 10.6931 3.97436 10.7812 3.86562 10.7812H0.321875C0.213144 10.7812 0.125 10.6931 0.125 10.5844V9.00937Z"
    fill="#1B1C1D" />
  <path
    d="M6.03125 9.00937C6.03125 8.90064 6.11939 8.8125 6.22812 8.8125H9.77188C9.88061 8.8125 9.96875 8.90064 9.96875 9.00937V10.5844C9.96875 10.6931 9.88061 10.7812 9.77188 10.7812H6.22812C6.11939 10.7812 6.03125 10.6931 6.03125 10.5844V9.00937Z"
    fill="#1B1C1D" />
  <path
    d="M11.9375 9.00937C11.9375 8.90064 12.0256 8.8125 12.1344 8.8125H15.6781C15.7869 8.8125 15.875 8.90064 15.875 9.00937V10.5844C15.875 10.6931 15.7869 10.7812 15.6781 10.7812H12.1344C12.0256 10.7812 11.9375 10.6931 11.9375 10.5844V9.00937Z"
    fill="#1B1C1D" />
  <path
    d="M3.07812 5.07187C3.07812 4.96314 3.16627 4.875 3.275 4.875H6.81875C6.92748 4.875 7.01562 4.96314 7.01562 5.07187V6.64688C7.01562 6.75561 6.92748 6.84375 6.81875 6.84375H3.275C3.16627 6.84375 3.07812 6.75561 3.07812 6.64688V5.07187Z"
    fill="#1B1C1D" />
  <path
    d="M8.98438 5.07187C8.98438 4.96314 9.07252 4.875 9.18125 4.875H12.725C12.8337 4.875 12.9219 4.96314 12.9219 5.07187V6.64688C12.9219 6.75561 12.8337 6.84375 12.725 6.84375H9.18125C9.07252 6.84375 8.98438 6.75561 8.98438 6.64688V5.07187Z"
    fill="#1B1C1D" />
  <path
    d="M6.03125 1.13438C6.03125 1.02564 6.11939 0.9375 6.22812 0.9375H9.77188C9.88061 0.9375 9.96875 1.02564 9.96875 1.13438V2.70937C9.96875 2.81811 9.88061 2.90625 9.77188 2.90625H6.22812C6.11939 2.90625 6.03125 2.81811 6.03125 2.70937V1.13438Z"
    fill="#1B1C1D" />
</svg>