<svg width="18" height="18" viewBox="0 0 18 18" fill="none" xmlns="http://www.w3.org/2000/svg">
  <path fill-rule="evenodd" clip-rule="evenodd"
    d="M1.125 9C1.125 4.6575 4.6575 1.125 9 1.125C13.3425 1.125 16.875 4.6575 16.875 9C16.875 13.3425 13.3425 16.875 9 16.875C4.6575 16.875 1.125 13.3425 1.125 9ZM2.25 9C2.25 12.7238 5.27625 15.75 9 15.75C12.7238 15.75 15.75 12.7238 15.75 9C15.75 5.27625 12.7238 2.25 9 2.25C5.27625 2.25 2.25 5.27625 2.25 9ZM8.20688 8.19562C8.43188 7.98187 8.69625 7.875 9.02812 7.875H9.0225C9.34313 7.875 9.59625 7.98187 9.80438 8.19562C10.0125 8.40937 10.1194 8.67375 10.1194 8.99437C10.1194 9.35437 10.0181 9.63562 9.80438 9.82125C9.32625 10.2487 8.65125 10.2206 8.19 9.82125C7.98188 9.63 7.875 9.35437 7.875 8.99437C7.875 8.6625 7.98187 8.40937 8.20688 8.19562Z"
    fill="#1B1C1D" />
</svg>