<svg width="16" height="16" viewBox="0 0 16 16" fill="none" xmlns="http://www.w3.org/2000/svg">
  <path fill-rule="evenodd" clip-rule="evenodd"
    d="M14.5 3.275H12.38C12.285 2.005 11.2 1 9.865 1H6.135C4.8 1 3.715 2.005 3.62 3.275H1.5C1.225 3.275 1 3.5 1 3.775V6.07C1 6.345 1.225 6.57 1.5 6.57H2.5L3.115 14.535C3.135 14.795 3.35 14.995 3.615 14.995H12.39C12.65 14.995 12.87 14.795 12.89 14.535L13.505 6.57H14.505C14.78 6.57 15.005 6.345 15.005 6.07V3.775C15.005 3.5 14.78 3.275 14.505 3.275H14.5ZM6.135 2H9.865C10.65 2 11.29 2.56 11.38 3.275H4.62C4.715 2.56 5.355 2 6.135 2ZM11.925 14H4.075L3.505 6.57H12.495L11.925 14ZM14 5.57H13.15C13.15 5.57 13.105 5.55 13.08 5.55C13.02 5.545 12.96 5.55 12.9 5.57H3.1C3.045 5.555 2.985 5.545 2.925 5.55C2.90873 5.55 2.89246 5.55635 2.87757 5.56217C2.86958 5.56529 2.86198 5.56825 2.855 5.57H2.005V4.275H14.005V5.57H14ZM6.59497 13.15C6.86997 13.15 7.09497 12.925 7.09497 12.65V7.90002C7.09497 7.62502 6.86997 7.40002 6.59497 7.40002C6.31997 7.40002 6.09497 7.62502 6.09497 7.90002V12.65C6.09497 12.925 6.31997 13.15 6.59497 13.15ZM9.90503 12.65C9.90503 12.925 9.68003 13.15 9.40503 13.15C9.13003 13.15 8.90503 12.925 8.90503 12.65V7.90002C8.90503 7.62502 9.13003 7.40002 9.40503 7.40002C9.68003 7.40002 9.90503 7.62502 9.90503 7.90002V12.65Z"
    fill="#1B1C1D" />
</svg>