<svg width="16" height="16" viewBox="0 0 16 16" fill="none" xmlns="http://www.w3.org/2000/svg">
  <path fill-rule="evenodd" clip-rule="evenodd"
    d="M14.5 3.92969H1.5C1.225 3.92969 1 4.15469 1 4.42969C1 4.70469 1.225 4.92969 1.5 4.92969H14.5C14.775 4.92969 15 4.70469 15 4.42969C15 4.15469 14.775 3.92969 14.5 3.92969ZM12.5 7.59473H3.5C3.225 7.59473 3 7.81973 3 8.09473C3 8.36973 3.225 8.59473 3.5 8.59473H12.5C12.775 8.59473 13 8.36973 13 8.09473C13 7.81973 12.775 7.59473 12.5 7.59473ZM5.75 11.0747H10.25C10.525 11.0747 10.75 11.2997 10.75 11.5747C10.75 11.8497 10.525 12.0747 10.25 12.0747H5.75C5.475 12.0747 5.25 11.8497 5.25 11.5747C5.25 11.2997 5.475 11.0747 5.75 11.0747Z"
    fill="#0070D2" />
</svg>