<svg width="12" height="12" viewBox="0 0 12 12" fill="none" xmlns="http://www.w3.org/2000/svg">
  <path fill-rule="evenodd" clip-rule="evenodd"
    d="M5.62499 2.33828L4.15874 4.10828C4.02749 4.26578 3.79124 4.28828 3.62999 4.15703C3.47249 4.02578 3.44999 3.78953 3.58124 3.62828L5.99999 0.707031L8.41874 3.62828C8.54999 3.78953 8.53124 4.02578 8.36999 4.15703C8.29874 4.21328 8.21249 4.24328 8.12999 4.24328C8.02124 4.24328 7.91624 4.19828 7.84124 4.10828L6.37499 2.33828V8.06078C6.37499 8.26703 6.20624 8.43578 5.99999 8.43578C5.79374 8.43578 5.62499 8.26703 5.62499 8.06078V2.33828ZM10.5 7.85822C10.5 7.65197 10.6687 7.48322 10.875 7.48322C11.0813 7.48322 11.25 7.65197 11.25 7.85822V10.1082C11.25 10.3145 11.0813 10.4832 10.875 10.4832H1.125C0.91875 10.4832 0.75 10.3145 0.75 10.1082V7.85822C0.75 7.65197 0.91875 7.48322 1.125 7.48322C1.33125 7.48322 1.5 7.65197 1.5 7.85822V9.73322H10.5V7.85822Z"
    fill="white" />
</svg>