<svg width="17" height="16" viewBox="0 0 17 16" fill="none" xmlns="http://www.w3.org/2000/svg">
<path fill-rule="evenodd" clip-rule="evenodd" d="M6.76489 0.990234H14.0899C14.3649 0.990234 14.5899 1.21523 14.5899 1.49023V10.8352C14.5899 11.1102 14.3649 11.3352 14.0899 11.3352H11.0599V10.3352H13.5899V1.99023H7.26489V3.65523H6.26489V1.49023C6.26489 1.21523 6.48989 0.990234 6.76489 0.990234ZM2.23486 4.65527H9.55986C9.83486 4.65527 10.0599 4.88027 10.0599 5.15527V14.5003C10.0599 14.7753 9.83486 15.0003 9.55986 15.0003H2.23486C1.95986 15.0003 1.73486 14.7753 1.73486 14.5003V5.15527C1.73486 4.88027 1.95986 4.65527 2.23486 4.65527ZM2.73486 14.0003H9.05986V5.65527H2.73486V14.0003Z" fill="#1B1C1D"/>
</svg>
