<svg width="16" height="16" viewBox="0 0 16 16" fill="none" xmlns="http://www.w3.org/2000/svg">
<path d="M13.7554 13.1102L10.8754 10.2302C12.5804 8.13516 12.4554 5.04516 10.5054 3.09516C8.42539 1.01516 5.04039 1.01516 2.96039 3.09516C0.880391 5.17516 0.880391 8.56016 2.96039 10.6402C4.00039 11.6802 5.36539 12.2002 6.73039 12.2002C7.95539 12.2002 9.17539 11.7802 10.1654 10.9452L13.0404 13.8202C13.1404 13.9202 13.2654 13.9652 13.3954 13.9652C13.5254 13.9652 13.6504 13.9152 13.7504 13.8202C13.9454 13.6252 13.9454 13.3102 13.7504 13.1152L13.7554 13.1102ZM3.67039 9.93016C1.98039 8.24016 1.98039 5.49016 3.67039 3.80016C4.51539 2.95516 5.62539 2.53516 6.73539 2.53516C7.84539 2.53516 8.95539 2.95516 9.80039 3.80016C11.4904 5.49016 11.4904 8.24016 9.80039 9.93016C8.11039 11.6202 5.36039 11.6202 3.67039 9.93016Z" fill="#8E8E8E"/>
</svg>
