<svg width="28" height="28" viewBox="0 0 28 28" fill="none" xmlns="http://www.w3.org/2000/svg">
<path d="M1.75 18.6812C1.75 18.5121 1.88711 18.375 2.05625 18.375H7.56875C7.73789 18.375 7.875 18.5121 7.875 18.6812V21.1313C7.875 21.3004 7.73789 21.4375 7.56875 21.4375H2.05625C1.88711 21.4375 1.75 21.3004 1.75 21.1313V18.6812Z" fill="#1B1C1D"/>
<path d="M10.9375 18.6812C10.9375 18.5121 11.0746 18.375 11.2437 18.375H16.7563C16.9254 18.375 17.0625 18.5121 17.0625 18.6812V21.1313C17.0625 21.3004 16.9254 21.4375 16.7563 21.4375H11.2437C11.0746 21.4375 10.9375 21.3004 10.9375 21.1313V18.6812Z" fill="#1B1C1D"/>
<path d="M20.125 18.6812C20.125 18.5121 20.2621 18.375 20.4312 18.375H25.9438C26.1129 18.375 26.25 18.5121 26.25 18.6812V21.1313C26.25 21.3004 26.1129 21.4375 25.9438 21.4375H20.4312C20.2621 21.4375 20.125 21.3004 20.125 21.1313V18.6812Z" fill="#1B1C1D"/>
<path d="M6.34375 12.5562C6.34375 12.3871 6.48086 12.25 6.65 12.25H12.1625C12.3316 12.25 12.4688 12.3871 12.4688 12.5562V15.0063C12.4688 15.1754 12.3316 15.3125 12.1625 15.3125H6.65C6.48086 15.3125 6.34375 15.1754 6.34375 15.0063V12.5562Z" fill="#1B1C1D"/>
<path d="M15.5312 12.5562C15.5312 12.3871 15.6684 12.25 15.8375 12.25H21.35C21.5191 12.25 21.6562 12.3871 21.6562 12.5562V15.0063C21.6562 15.1754 21.5191 15.3125 21.35 15.3125H15.8375C15.6684 15.3125 15.5312 15.1754 15.5312 15.0063V12.5562Z" fill="#1B1C1D"/>
<path d="M10.9375 6.43125C10.9375 6.26211 11.0746 6.125 11.2437 6.125H16.7563C16.9254 6.125 17.0625 6.26211 17.0625 6.43125V8.88125C17.0625 9.05039 16.9254 9.1875 16.7563 9.1875H11.2437C11.0746 9.1875 10.9375 9.05039 10.9375 8.88125V6.43125Z" fill="#1B1C1D"/>
</svg>
