<svg width="89" height="72" viewBox="0 0 89 72" fill="none" xmlns="http://www.w3.org/2000/svg">
<g clip-path="url(#clip0_6485_92435)">
<path d="M65.28 56.5C65.53 57.63 64.73 57.71 64.73 58.87C64.73 60.02 65.28 60.02 65.28 61.18C65.28 62.34 64.73 62.33 64.73 63.49C64.73 64.64 65.28 64.64 65.28 65.8C65.28 66.96 64.56 67.01 64.73 68.15C64.9 69.29 65.52 69.35 65.27 70.48C65.22 70.73 64.75 70.14 64.49 70.14C64.23 70.14 64.24 70.69 63.98 70.69C63.72 70.69 63.73 70.14 63.47 70.14C63.21 70.14 63.22 70.69 62.96 70.69C62.7 70.69 62.71 70.14 62.45 70.14C62.19 70.14 61.72 70.73 61.67 70.48C61.42 69.35 62.22 69.27 62.22 68.11C62.22 66.96 61.67 66.96 61.67 65.8C61.67 64.65 62.22 64.65 62.22 63.49C62.22 62.34 61.67 62.34 61.67 61.18C61.67 60.03 62.22 60.03 62.22 58.87C62.22 57.71 61.42 57.63 61.67 56.5" fill="white"/>
<path d="M65.28 56.5C65.53 57.63 64.73 57.71 64.73 58.87C64.73 60.02 65.28 60.02 65.28 61.18C65.28 62.34 64.73 62.33 64.73 63.49C64.73 64.64 65.28 64.64 65.28 65.8C65.28 66.96 64.56 67.01 64.73 68.15C64.9 69.29 65.52 69.35 65.27 70.48C65.22 70.73 64.75 70.14 64.49 70.14C64.23 70.14 64.24 70.69 63.98 70.69C63.72 70.69 63.73 70.14 63.47 70.14C63.21 70.14 63.22 70.69 62.96 70.69C62.7 70.69 62.71 70.14 62.45 70.14C62.19 70.14 61.72 70.73 61.67 70.48C61.42 69.35 62.22 69.27 62.22 68.11C62.22 66.96 61.67 66.96 61.67 65.8C61.67 64.65 62.22 64.65 62.22 63.49C62.22 62.34 61.67 62.34 61.67 61.18C61.67 60.03 62.22 60.03 62.22 58.87C62.22 57.71 61.42 57.63 61.67 56.5" stroke="#0D274D" stroke-width="0.5" stroke-linecap="round" stroke-linejoin="round"/>
<path d="M65.28 56.5004C65.53 57.6304 64.73 57.7104 64.73 58.8704C64.73 60.0204 65.28 60.0204 65.28 61.1804C65.28 62.3404 64.73 62.3304 64.73 63.4904C64.73 64.6404 65.28 64.6404 65.28 65.8004C65.28 66.9604 64.56 67.0104 64.73 68.1504C64.9 69.2904 65.52 69.3504 65.27 70.4804C65.22 70.7304 64.75 70.1404 64.49 70.1404C64.23 70.1404 64.24 70.6904 63.98 70.6904C63.72 70.6904 63.73 70.1404 63.47 70.1404C63.21 70.1404 63.22 70.6904 62.96 70.6904C62.7 70.6904 62.71 70.1404 62.45 70.1404C62.19 70.1404 61.72 70.7304 61.67 70.4804C61.42 69.3504 62.22 69.2704 62.22 68.1104C62.22 66.9604 61.67 66.9604 61.67 65.8004C61.67 64.6504 62.22 64.6504 62.22 63.4904C62.22 62.3404 61.67 62.3404 61.67 61.1804C61.67 60.0304 62.22 60.0304 62.22 58.8704C62.22 57.7104 61.42 57.6304 61.67 56.5004C61.67 56.5004 61.73 54.9004 63.47 54.9004C65.21 54.9004 65.26 56.5004 65.26 56.5004H65.28Z" fill="white" stroke="#0D274D" stroke-width="0.5" stroke-linecap="round" stroke-linejoin="round"/>
<path d="M72.35 50.9299C72.69 52.4799 71.59 52.5999 71.59 54.1999C71.59 55.7999 72.35 55.7899 72.35 57.3899C72.35 58.9899 71.59 58.9799 71.59 60.5799C71.59 62.1699 72.35 62.1699 72.35 63.7699C72.35 65.3599 71.36 65.4399 71.59 67.0099C71.83 68.6599 72.68 68.6699 72.34 70.2199C72.26 70.5599 71.62 69.7599 71.26 69.7599C70.9 69.7599 70.91 70.5199 70.56 70.5199C70.21 70.5199 70.21 69.7599 69.86 69.7599C69.51 69.7599 69.51 70.5199 69.16 70.5199C68.81 70.5199 68.81 69.7599 68.46 69.7599C68.11 69.7599 67.46 70.5699 67.38 70.2199C67.04 68.6699 68.14 68.5499 68.14 66.9499C68.14 65.3599 67.38 65.3599 67.38 63.7599C67.38 62.1699 68.14 62.1699 68.14 60.5699C68.14 58.9699 67.38 58.9799 67.38 57.3799C67.38 55.7899 68.14 55.7899 68.14 54.1899C68.14 52.5999 67.04 52.4799 67.38 50.9199" fill="white"/>
<path d="M72.35 50.9299C72.69 52.4799 71.59 52.5999 71.59 54.1999C71.59 55.7999 72.35 55.7899 72.35 57.3899C72.35 58.9899 71.59 58.9799 71.59 60.5799C71.59 62.1699 72.35 62.1699 72.35 63.7699C72.35 65.3599 71.36 65.4399 71.59 67.0099C71.83 68.6599 72.68 68.6699 72.34 70.2199C72.26 70.5599 71.62 69.7599 71.26 69.7599C70.9 69.7599 70.91 70.5199 70.56 70.5199C70.21 70.5199 70.21 69.7599 69.86 69.7599C69.51 69.7599 69.51 70.5199 69.16 70.5199C68.81 70.5199 68.81 69.7599 68.46 69.7599C68.11 69.7599 67.46 70.5699 67.38 70.2199C67.04 68.6699 68.14 68.5499 68.14 66.9499C68.14 65.3599 67.38 65.3599 67.38 63.7599C67.38 62.1699 68.14 62.1699 68.14 60.5699C68.14 58.9699 67.38 58.9799 67.38 57.3799C67.38 55.7899 68.14 55.7899 68.14 54.1899C68.14 52.5999 67.04 52.4799 67.38 50.9199" stroke="#0D274D" stroke-width="0.5" stroke-linecap="round" stroke-linejoin="round"/>
<path d="M72.35 50.93C72.69 52.48 71.59 52.6 71.59 54.2C71.59 55.8 72.35 55.79 72.35 57.39C72.35 58.99 71.59 58.98 71.59 60.58C71.59 62.17 72.35 62.17 72.35 63.77C72.35 65.36 71.36 65.44 71.59 67.01C71.83 68.66 72.68 68.67 72.34 70.22C72.26 70.56 71.62 69.76 71.26 69.76C70.9 69.76 70.91 70.52 70.56 70.52C70.21 70.52 70.21 69.76 69.86 69.76C69.51 69.76 69.51 70.52 69.16 70.52C68.81 70.52 68.81 69.76 68.46 69.76C68.11 69.76 67.46 70.57 67.38 70.22C67.04 68.67 68.14 68.55 68.14 66.95C68.14 65.36 67.38 65.36 67.38 63.76C67.38 62.17 68.14 62.17 68.14 60.57C68.14 58.97 67.38 58.98 67.38 57.38C67.38 55.79 68.14 55.79 68.14 54.19C68.14 52.6 67.04 52.48 67.38 50.92C67.38 50.92 67.47 48.71 69.87 48.71C72.27 48.71 72.35 50.92 72.35 50.92V50.93Z" fill="white" stroke="#0D274D" stroke-width="0.5" stroke-linecap="round" stroke-linejoin="round"/>
<path d="M77.74 56.4805C77.99 57.5905 77.2 57.6805 77.2 58.8205C77.2 59.9605 77.75 59.9605 77.75 61.1005C77.75 62.2405 77.2 62.2405 77.2 63.3805C77.2 64.5205 77.75 64.5205 77.75 65.6605C77.75 66.8005 77.04 66.8505 77.21 67.9805C77.38 69.1605 77.99 69.1705 77.75 70.2805C77.7 70.5305 77.23 69.9505 76.98 69.9505C76.73 69.9505 76.73 70.5005 76.48 70.5005C76.23 70.5005 76.23 69.9505 75.98 69.9505C75.73 69.9505 75.73 70.5005 75.48 70.5005C75.23 70.5005 75.23 69.9505 74.98 69.9505C74.73 69.9505 74.26 70.5305 74.21 70.2805C73.96 69.1705 74.75 69.0805 74.75 67.9405C74.75 66.8005 74.2 66.8005 74.2 65.6605C74.2 64.5205 74.75 64.5205 74.75 63.3805C74.75 62.2405 74.2 62.2405 74.2 61.1005C74.2 59.9605 74.75 59.9605 74.75 58.8205C74.75 57.6805 73.96 57.5905 74.21 56.4805" fill="white"/>
<path d="M77.74 56.4805C77.99 57.5905 77.2 57.6805 77.2 58.8205C77.2 59.9605 77.75 59.9605 77.75 61.1005C77.75 62.2405 77.2 62.2405 77.2 63.3805C77.2 64.5205 77.75 64.5205 77.75 65.6605C77.75 66.8005 77.04 66.8505 77.21 67.9805C77.38 69.1605 77.99 69.1705 77.75 70.2805C77.7 70.5305 77.23 69.9505 76.98 69.9505C76.73 69.9505 76.73 70.5005 76.48 70.5005C76.23 70.5005 76.23 69.9505 75.98 69.9505C75.73 69.9505 75.73 70.5005 75.48 70.5005C75.23 70.5005 75.23 69.9505 74.98 69.9505C74.73 69.9505 74.26 70.5305 74.21 70.2805C73.96 69.1705 74.75 69.0805 74.75 67.9405C74.75 66.8005 74.2 66.8005 74.2 65.6605C74.2 64.5205 74.75 64.5205 74.75 63.3805C74.75 62.2405 74.2 62.2405 74.2 61.1005C74.2 59.9605 74.75 59.9605 74.75 58.8205C74.75 57.6805 73.96 57.5905 74.21 56.4805" stroke="#0D274D" stroke-width="0.5" stroke-linecap="round" stroke-linejoin="round"/>
<path d="M77.74 56.4804C77.99 57.5904 77.2 57.6804 77.2 58.8204C77.2 59.9604 77.75 59.9604 77.75 61.1004C77.75 62.2404 77.2 62.2404 77.2 63.3804C77.2 64.5204 77.75 64.5204 77.75 65.6604C77.75 66.8004 77.04 66.8504 77.21 67.9804C77.38 69.1604 77.99 69.1704 77.75 70.2804C77.7 70.5304 77.23 69.9504 76.98 69.9504C76.73 69.9504 76.73 70.5004 76.48 70.5004C76.23 70.5004 76.23 69.9504 75.98 69.9504C75.73 69.9504 75.73 70.5004 75.48 70.5004C75.23 70.5004 75.23 69.9504 74.98 69.9504C74.73 69.9504 74.26 70.5304 74.21 70.2804C73.96 69.1704 74.75 69.0804 74.75 67.9404C74.75 66.8004 74.2 66.8004 74.2 65.6604C74.2 64.5204 74.75 64.5204 74.75 63.3804C74.75 62.2404 74.2 62.2404 74.2 61.1004C74.2 59.9604 74.75 59.9604 74.75 58.8204C74.75 57.6804 73.96 57.5904 74.21 56.4804C74.21 56.4804 74.27 54.9004 75.99 54.9004C77.71 54.9004 77.76 56.4804 77.76 56.4804H77.74Z" fill="white" stroke="#0D274D" stroke-width="0.5" stroke-linecap="round" stroke-linejoin="round"/>
<path d="M78.65 71.5198C78.65 70.0398 77.45 68.8398 75.97 68.8398C74.49 68.8398 73.29 70.0398 73.29 71.5198" fill="#ABB3C0"/>
<path d="M78.65 71.5198C78.65 70.0398 77.45 68.8398 75.97 68.8398C74.49 68.8398 73.29 70.0398 73.29 71.5198" stroke="#0D274D" stroke-width="0.5" stroke-linecap="round" stroke-linejoin="round"/>
<path d="M66.17 71.5198C66.17 70.0398 64.97 68.8398 63.49 68.8398C62.01 68.8398 60.81 70.0398 60.81 71.5198" fill="#ABB3C0"/>
<path d="M66.17 71.5198C66.17 70.0398 64.97 68.8398 63.49 68.8398C62.01 68.8398 60.81 70.0398 60.81 71.5198" stroke="#0D274D" stroke-width="0.5" stroke-linecap="round" stroke-linejoin="round"/>
<path d="M74.7 71.5198C74.7 68.8898 72.57 66.7598 69.94 66.7598C67.31 66.7598 65.18 68.8898 65.18 71.5198" fill="#ABB3C0"/>
<path d="M74.7 71.5198C74.7 68.8898 72.57 66.7598 69.94 66.7598C67.31 66.7598 65.18 68.8898 65.18 71.5198" stroke="#0D274D" stroke-width="0.5" stroke-linecap="round" stroke-linejoin="round"/>
<path d="M19.07 36.9297H46.84C49.34 36.9297 51.37 38.9597 51.37 41.4597V50.9097H10.14V41.4597C10.14 38.9597 12.17 36.9297 14.67 36.9297H42.44" fill="white"/>
<path d="M19.07 36.9297H46.84C49.34 36.9297 51.37 38.9597 51.37 41.4597V50.9097H10.14V41.4597C10.14 38.9597 12.17 36.9297 14.67 36.9297H42.44" stroke="#0D274D" stroke-width="0.5" stroke-linecap="round" stroke-linejoin="round"/>
<path d="M51.37 50.9102H10.14V71.6402H51.37V50.9102Z" fill="white" stroke="#0D274D" stroke-width="0.5" stroke-linecap="round" stroke-linejoin="round"/>
<path d="M33.74 46.9102H27.78V55.6902H33.74V46.9102Z" fill="#0D274D" stroke="#0D274D" stroke-width="0.5" stroke-linecap="round" stroke-linejoin="round"/>
<path d="M28.61 54.1604C28.61 53.5704 28.82 53.0604 29.24 52.6404C29.66 52.2204 30.16 52.0104 30.76 52.0104C31.35 52.0104 31.86 52.2204 32.28 52.6404C32.7 53.0604 32.91 53.5604 32.91 54.1604V55.6304H34.52V54.1604C34.52 53.1304 34.15 52.2504 33.41 51.5104C32.67 50.7704 31.79 50.4004 30.76 50.4004C29.73 50.4004 28.85 50.7704 28.11 51.5104C27.37 52.2504 27 53.1304 27 54.1604V55.6304H28.61V54.1604Z" fill="white" stroke="#0D274D" stroke-width="0.5" stroke-linecap="round" stroke-linejoin="round"/>
<path d="M35.58 64.3201V55.9001C35.58 55.7501 35.46 55.6201 35.3 55.6201H26.2C26.05 55.6201 25.92 55.7401 25.92 55.9001V64.3201C25.92 64.4701 26.04 64.6001 26.2 64.6001H35.3C35.45 64.6001 35.58 64.4801 35.58 64.3201Z" fill="white" stroke="#0D274D" stroke-width="0.5" stroke-linecap="round" stroke-linejoin="round"/>
<path d="M32.22 58.7503C32.22 57.9403 31.56 57.2803 30.75 57.2803C29.94 57.2803 29.28 57.9403 29.28 58.7503C29.28 59.3903 29.69 59.9303 30.26 60.1303V61.9203C30.26 62.1903 30.48 62.4003 30.74 62.4003C31 62.4003 31.22 62.1803 31.22 61.9203V60.1303C31.79 59.9303 32.2 59.3903 32.2 58.7503H32.22Z" fill="#0D274D" stroke="#0D274D" stroke-width="0.5" stroke-linecap="round" stroke-linejoin="round"/>
<path d="M31.73 50.3401C31.73 49.8044 31.2957 49.3701 30.76 49.3701C30.2243 49.3701 29.79 49.8044 29.79 50.3401V52.2601C29.79 52.7958 30.2243 53.2301 30.76 53.2301C31.2957 53.2301 31.73 52.7958 31.73 52.2601V50.3401Z" fill="#0D274D" stroke="#0D274D" stroke-width="0.5" stroke-linecap="round" stroke-linejoin="round"/>
<path d="M18.12 50.9102H28.55" stroke="#0D274D" stroke-width="0.5" stroke-linecap="round" stroke-linejoin="round"/>
<path d="M43.54 36.9297H40.25V71.6397H43.54V36.9297Z" fill="#ABB3C0" stroke="#0D274D" stroke-width="0.5" stroke-linecap="round" stroke-linejoin="round"/>
<path d="M21.56 36.9297H18.27V71.6397H21.56V36.9297Z" fill="#ABB3C0" stroke="#0D274D" stroke-width="0.5" stroke-linecap="round" stroke-linejoin="round"/>
<path d="M0.75 71.6299H88.1" stroke="#0D274D" stroke-width="0.5" stroke-linecap="round" stroke-linejoin="round"/>
<path d="M47.66 6.44027C48.2565 6.44027 48.74 5.95674 48.74 5.36027C48.74 4.76381 48.2565 4.28027 47.66 4.28027C47.0635 4.28027 46.58 4.76381 46.58 5.36027C46.58 5.95674 47.0635 6.44027 47.66 6.44027Z" fill="white" stroke="#0D274D" stroke-width="0.5" stroke-linecap="round" stroke-linejoin="round"/>
<path d="M44.17 13.6405C44.7665 13.6405 45.25 13.1569 45.25 12.5605C45.25 11.964 44.7665 11.4805 44.17 11.4805C43.5735 11.4805 43.09 11.964 43.09 12.5605C43.09 13.1569 43.5735 13.6405 44.17 13.6405Z" fill="white" stroke="#0D274D" stroke-width="0.5" stroke-linecap="round" stroke-linejoin="round"/>
<path d="M42.24 1.33C42.5382 1.33 42.78 1.08823 42.78 0.79C42.78 0.491766 42.5382 0.25 42.24 0.25C41.9418 0.25 41.7 0.491766 41.7 0.79C41.7 1.08823 41.9418 1.33 42.24 1.33Z" fill="white" stroke="#0D274D" stroke-width="0.5" stroke-linecap="round" stroke-linejoin="round"/>
<path d="M67.36 12.83C67.6582 12.83 67.9 12.5882 67.9 12.29C67.9 11.9918 67.6582 11.75 67.36 11.75C67.0618 11.75 66.82 11.9918 66.82 12.29C66.82 12.5882 67.0618 12.83 67.36 12.83Z" fill="white" stroke="#0D274D" stroke-width="0.5" stroke-linecap="round" stroke-linejoin="round"/>
<path d="M55.35 27.3398C55.6482 27.3398 55.89 27.098 55.89 26.7998C55.89 26.5015 55.6482 26.2598 55.35 26.2598C55.0518 26.2598 54.81 26.5015 54.81 26.7998C54.81 27.098 55.0518 27.3398 55.35 27.3398Z" fill="white" stroke="#0D274D" stroke-width="0.5" stroke-linecap="round" stroke-linejoin="round"/>
<path d="M70.78 7.87973C71.3765 7.87973 71.86 7.39619 71.86 6.79973C71.86 6.20326 71.3765 5.71973 70.78 5.71973C70.1835 5.71973 69.7 6.20326 69.7 6.79973C69.7 7.39619 70.1835 7.87973 70.78 7.87973Z" fill="white" stroke="#0D274D" stroke-width="0.5" stroke-linecap="round" stroke-linejoin="round"/>
<path d="M56.3538 13.8468L54.9398 14.8435C54.3665 15.2476 54.2294 16.0399 54.6335 16.6132L54.6393 16.6214C55.0434 17.1947 55.8357 17.3318 56.409 16.9277L57.823 15.931C58.3963 15.5269 58.5334 14.7345 58.1293 14.1613L58.1236 14.1531C57.7195 13.5798 56.9271 13.4426 56.3538 13.8468Z" fill="#0D274D" stroke="#0D274D" stroke-width="0.5" stroke-linecap="round" stroke-linejoin="round"/>
<path d="M57.6472 20.2537L56.5986 18.7661C56.1722 18.1613 55.3362 18.0166 54.7313 18.4429L54.7232 18.4487C54.1183 18.8751 53.9736 19.7111 54.4 20.316L55.4485 21.8035C55.8749 22.4084 56.7109 22.5531 57.3158 22.1268L57.324 22.121C57.9289 21.6946 58.0736 20.8586 57.6472 20.2537Z" fill="#0D274D" stroke="#0D274D" stroke-width="0.5" stroke-linecap="round" stroke-linejoin="round"/>
<path d="M55.44 19.8398L50.71 21.1098L52.78 23.1798C53.4 23.7998 54.46 23.5198 54.69 22.6698L55.45 19.8498L55.44 19.8398Z" fill="#0D274D" stroke="#0D274D" stroke-width="0.5" stroke-linecap="round" stroke-linejoin="round"/>
<path d="M51.13 14.5603L55.15 16.8803V14.2103C55.15 13.3303 54.2 12.7803 53.44 13.2203L51.13 14.5603Z" fill="#0D274D" stroke="#0D274D" stroke-width="0.5" stroke-linecap="round" stroke-linejoin="round"/>
<path d="M60.83 16.2299L58.08 17.8199C57.79 17.9899 57.79 18.4099 58.08 18.5799L60.83 20.1699C61.12 20.3399 61.49 20.1299 61.49 19.7899V16.6199C61.49 16.2799 61.13 16.0699 60.83 16.2399V16.2299Z" fill="#0D274D" stroke="#0D274D" stroke-width="0.5" stroke-linecap="round" stroke-linejoin="round"/>
<path d="M52.39 14.3105C53.66 14.3105 55.15 14.7605 56.6 15.5805C57.49 16.0705 58.23 16.5605 58.98 17.3205C59.05 17.5205 59.08 17.8005 59.08 18.1205C59.08 18.4005 59.02 18.7905 58.92 18.9805C58.21 19.7105 57.58 20.2805 56.6 20.8205C55.15 21.6405 53.66 22.0905 52.39 22.0905C48.34 22.0905 46.13 19.4705 46.13 18.1305C46.13 16.7905 48.02 14.3205 52.39 14.3205V14.3105Z" fill="#ABB3C0" stroke="#0D274D" stroke-width="0.5" stroke-linecap="round" stroke-linejoin="round"/>
<path d="M48.87 15.0002C46.99 15.8402 46.14 17.2502 46.14 18.1202C46.14 18.9902 47.1 20.4402 48.91 21.3102C49.32 20.4102 49.56 19.3502 49.56 18.1902C49.56 17.0302 49.3 15.9102 48.87 14.9902V15.0002Z" fill="#0D274D" stroke="#0D274D" stroke-width="0.5" stroke-linecap="round" stroke-linejoin="round"/>
<path d="M66.229 25.3349L65.1501 26.0954C64.7122 26.4041 64.6075 27.0093 64.9161 27.4471L64.9219 27.4553C65.2305 27.8932 65.8357 27.9979 66.2736 27.6893L67.3525 26.9287C67.7903 26.6201 67.8951 26.0149 67.5864 25.5771L67.5807 25.5689C67.272 25.131 66.6669 25.0263 66.229 25.3349Z" fill="#0D274D" stroke="#0D274D" stroke-width="0.5" stroke-linecap="round" stroke-linejoin="round"/>
<path d="M67.219 30.213L66.4239 29.085C66.0961 28.6201 65.4554 28.5076 64.9927 28.8337C64.53 29.1599 64.4206 29.8012 64.7483 30.2661L65.5434 31.3941C65.8712 31.859 66.5119 31.9715 66.9746 31.6454C67.4373 31.3192 67.5467 30.6779 67.219 30.213Z" fill="#0D274D" stroke="#0D274D" stroke-width="0.5" stroke-linecap="round" stroke-linejoin="round"/>
<path d="M65.53 29.9004L61.91 30.8704L63.16 32.1204C63.78 32.7404 64.84 32.4604 65.07 31.6104L65.53 29.9004Z" fill="#0D274D" stroke="#0D274D" stroke-width="0.5" stroke-linecap="round" stroke-linejoin="round"/>
<path d="M62.24 25.8599L65.31 27.6299V26.0599C65.31 25.1799 64.36 24.6299 63.6 25.0699L62.24 25.8599Z" fill="#0D274D" stroke="#0D274D" stroke-width="0.5" stroke-linecap="round" stroke-linejoin="round"/>
<path d="M69.62 27.16L67.58 28.34C67.34 28.48 67.34 28.82 67.58 28.95L69.62 30.13C69.86 30.27 70.15 30.1 70.15 29.82V27.46C70.15 27.19 69.86 27.02 69.62 27.15V27.16Z" fill="#0D274D" stroke="#0D274D" stroke-width="0.5" stroke-linecap="round" stroke-linejoin="round"/>
<path d="M63.2 25.6799C64.17 25.6799 65.31 26.0199 66.42 26.6499C67.1 27.0299 67.67 27.3999 68.24 27.9799C68.29 28.1299 68.32 28.3499 68.32 28.5899C68.32 28.8099 68.27 29.1099 68.2 29.2399C67.66 29.7999 67.17 30.2299 66.43 30.6399C65.32 31.2599 64.18 31.6099 63.21 31.6099C60.12 31.6099 58.43 29.6099 58.43 28.5799C58.43 27.5499 59.87 25.6699 63.21 25.6699L63.2 25.6799Z" fill="#ABB3C0" stroke="#0D274D" stroke-width="0.5" stroke-linecap="round" stroke-linejoin="round"/>
<path d="M60.51 26.21C59.08 26.85 58.42 27.93 58.42 28.59C58.42 29.25 59.16 30.36 60.54 31.03C60.85 30.34 61.04 29.53 61.04 28.65C61.04 27.77 60.84 26.91 60.51 26.21Z" fill="#0D274D" stroke="#0D274D" stroke-width="0.5" stroke-linecap="round" stroke-linejoin="round"/>
<path d="M72.7584 15.5937L72.0064 16.1237C71.704 16.3369 71.6316 16.7549 71.8448 17.0574L71.8506 17.0656C72.0638 17.368 72.4818 17.4404 72.7842 17.2272L73.5362 16.6971C73.8386 16.4839 73.911 16.0659 73.6978 15.7635L73.692 15.7553C73.4788 15.4529 73.0608 15.3805 72.7584 15.5937Z" fill="#0D274D" stroke="#0D274D" stroke-width="0.5" stroke-linecap="round" stroke-linejoin="round"/>
<path d="M73.4341 18.9685L72.881 18.1838C72.6551 17.8633 72.2122 17.7867 71.8917 18.0126C71.5712 18.2385 71.4945 18.6815 71.7204 19.002L72.2735 19.7866C72.4994 20.1071 72.9424 20.1838 73.2629 19.9579C73.5834 19.7319 73.6601 19.289 73.4341 18.9685Z" fill="#0D274D" stroke="#0D274D" stroke-width="0.5" stroke-linecap="round" stroke-linejoin="round"/>
<path d="M72.28 18.7607L69.78 19.4307L70.58 20.2307C71.04 20.6907 71.82 20.4807 71.99 19.8507L72.28 18.7607Z" fill="#0D274D" stroke="#0D274D" stroke-width="0.5" stroke-linecap="round" stroke-linejoin="round"/>
<path d="M70 15.9705L72.13 17.2005V15.9605C72.13 15.4205 71.55 15.0805 71.08 15.3505L70.01 15.9705H70Z" fill="#0D274D" stroke="#0D274D" stroke-width="0.5" stroke-linecap="round" stroke-linejoin="round"/>
<path d="M75.1 16.8701L73.69 17.6801C73.53 17.7701 73.53 18.0101 73.69 18.1101L75.1 18.9201C75.26 19.0101 75.47 18.9001 75.47 18.7101V17.0801C75.47 16.8901 75.27 16.7701 75.1 16.8701Z" fill="#0D274D" stroke="#0D274D" stroke-width="0.5" stroke-linecap="round" stroke-linejoin="round"/>
<path d="M70.66 15.8408C71.33 15.8408 72.12 16.0808 72.88 16.5108C73.35 16.7708 73.74 17.0308 74.14 17.4308C74.17 17.5408 74.19 17.6808 74.19 17.8508C74.19 18.0008 74.16 18.2108 74.11 18.3008C73.74 18.6908 73.4 18.9908 72.89 19.2708C72.12 19.7008 71.33 19.9408 70.67 19.9408C68.53 19.9408 67.37 18.5608 67.37 17.8508C67.37 17.1408 68.37 15.8408 70.67 15.8408H70.66Z" fill="#ABB3C0" stroke="#0D274D" stroke-width="0.5" stroke-linecap="round" stroke-linejoin="round"/>
<path d="M68.8 16.2002C67.81 16.6402 67.36 17.3902 67.36 17.8502C67.36 18.3102 67.87 19.0702 68.82 19.5402C69.03 19.0602 69.16 18.5002 69.16 17.8902C69.16 17.2802 69.02 16.6902 68.8 16.2002Z" fill="#0D274D" stroke="#0D274D" stroke-width="0.5" stroke-linecap="round" stroke-linejoin="round"/>
<path d="M65.28 56.5C65.53 57.63 64.73 57.71 64.73 58.87C64.73 60.02 65.28 60.02 65.28 61.18C65.28 62.34 64.73 62.33 64.73 63.49C64.73 64.64 65.28 64.64 65.28 65.8C65.28 66.96 64.56 67.01 64.73 68.15C64.9 69.29 65.52 69.35 65.27 70.48C65.22 70.73 64.75 70.14 64.49 70.14C64.23 70.14 64.24 70.69 63.98 70.69C63.72 70.69 63.73 70.14 63.47 70.14C63.21 70.14 63.22 70.69 62.96 70.69C62.7 70.69 62.71 70.14 62.45 70.14C62.19 70.14 61.72 70.73 61.67 70.48C61.42 69.35 62.22 69.27 62.22 68.11C62.22 66.96 61.67 66.96 61.67 65.8C61.67 64.65 62.22 64.65 62.22 63.49C62.22 62.34 61.67 62.34 61.67 61.18C61.67 60.03 62.22 60.03 62.22 58.87C62.22 57.71 61.42 57.63 61.67 56.5" fill="white"/>
<path d="M65.28 56.5C65.53 57.63 64.73 57.71 64.73 58.87C64.73 60.02 65.28 60.02 65.28 61.18C65.28 62.34 64.73 62.33 64.73 63.49C64.73 64.64 65.28 64.64 65.28 65.8C65.28 66.96 64.56 67.01 64.73 68.15C64.9 69.29 65.52 69.35 65.27 70.48C65.22 70.73 64.75 70.14 64.49 70.14C64.23 70.14 64.24 70.69 63.98 70.69C63.72 70.69 63.73 70.14 63.47 70.14C63.21 70.14 63.22 70.69 62.96 70.69C62.7 70.69 62.71 70.14 62.45 70.14C62.19 70.14 61.72 70.73 61.67 70.48C61.42 69.35 62.22 69.27 62.22 68.11C62.22 66.96 61.67 66.96 61.67 65.8C61.67 64.65 62.22 64.65 62.22 63.49C62.22 62.34 61.67 62.34 61.67 61.18C61.67 60.03 62.22 60.03 62.22 58.87C62.22 57.71 61.42 57.63 61.67 56.5" stroke="#0D274D" stroke-width="0.5" stroke-linecap="round" stroke-linejoin="round"/>
<path d="M65.28 56.5004C65.53 57.6304 64.73 57.7104 64.73 58.8704C64.73 60.0204 65.28 60.0204 65.28 61.1804C65.28 62.3404 64.73 62.3304 64.73 63.4904C64.73 64.6404 65.28 64.6404 65.28 65.8004C65.28 66.9604 64.56 67.0104 64.73 68.1504C64.9 69.2904 65.52 69.3504 65.27 70.4804C65.22 70.7304 64.75 70.1404 64.49 70.1404C64.23 70.1404 64.24 70.6904 63.98 70.6904C63.72 70.6904 63.73 70.1404 63.47 70.1404C63.21 70.1404 63.22 70.6904 62.96 70.6904C62.7 70.6904 62.71 70.1404 62.45 70.1404C62.19 70.1404 61.72 70.7304 61.67 70.4804C61.42 69.3504 62.22 69.2704 62.22 68.1104C62.22 66.9604 61.67 66.9604 61.67 65.8004C61.67 64.6504 62.22 64.6504 62.22 63.4904C62.22 62.3404 61.67 62.3404 61.67 61.1804C61.67 60.0304 62.22 60.0304 62.22 58.8704C62.22 57.7104 61.42 57.6304 61.67 56.5004C61.67 56.5004 61.73 54.9004 63.47 54.9004C65.21 54.9004 65.26 56.5004 65.26 56.5004H65.28Z" fill="white" stroke="#0D274D" stroke-width="0.5" stroke-linecap="round" stroke-linejoin="round"/>
<path d="M72.35 50.9299C72.69 52.4799 71.59 52.5999 71.59 54.1999C71.59 55.7999 72.35 55.7899 72.35 57.3899C72.35 58.9899 71.59 58.9799 71.59 60.5799C71.59 62.1699 72.35 62.1699 72.35 63.7699C72.35 65.3599 71.36 65.4399 71.59 67.0099C71.83 68.6599 72.68 68.6699 72.34 70.2199C72.26 70.5599 71.62 69.7599 71.26 69.7599C70.9 69.7599 70.91 70.5199 70.56 70.5199C70.21 70.5199 70.21 69.7599 69.86 69.7599C69.51 69.7599 69.51 70.5199 69.16 70.5199C68.81 70.5199 68.81 69.7599 68.46 69.7599C68.11 69.7599 67.46 70.5699 67.38 70.2199C67.04 68.6699 68.14 68.5499 68.14 66.9499C68.14 65.3599 67.38 65.3599 67.38 63.7599C67.38 62.1699 68.14 62.1699 68.14 60.5699C68.14 58.9699 67.38 58.9799 67.38 57.3799C67.38 55.7899 68.14 55.7899 68.14 54.1899C68.14 52.5999 67.04 52.4799 67.38 50.9199" fill="white"/>
<path d="M72.35 50.9299C72.69 52.4799 71.59 52.5999 71.59 54.1999C71.59 55.7999 72.35 55.7899 72.35 57.3899C72.35 58.9899 71.59 58.9799 71.59 60.5799C71.59 62.1699 72.35 62.1699 72.35 63.7699C72.35 65.3599 71.36 65.4399 71.59 67.0099C71.83 68.6599 72.68 68.6699 72.34 70.2199C72.26 70.5599 71.62 69.7599 71.26 69.7599C70.9 69.7599 70.91 70.5199 70.56 70.5199C70.21 70.5199 70.21 69.7599 69.86 69.7599C69.51 69.7599 69.51 70.5199 69.16 70.5199C68.81 70.5199 68.81 69.7599 68.46 69.7599C68.11 69.7599 67.46 70.5699 67.38 70.2199C67.04 68.6699 68.14 68.5499 68.14 66.9499C68.14 65.3599 67.38 65.3599 67.38 63.7599C67.38 62.1699 68.14 62.1699 68.14 60.5699C68.14 58.9699 67.38 58.9799 67.38 57.3799C67.38 55.7899 68.14 55.7899 68.14 54.1899C68.14 52.5999 67.04 52.4799 67.38 50.9199" stroke="#0D274D" stroke-width="0.5" stroke-linecap="round" stroke-linejoin="round"/>
<path d="M72.35 50.93C72.69 52.48 71.59 52.6 71.59 54.2C71.59 55.8 72.35 55.79 72.35 57.39C72.35 58.99 71.59 58.98 71.59 60.58C71.59 62.17 72.35 62.17 72.35 63.77C72.35 65.36 71.36 65.44 71.59 67.01C71.83 68.66 72.68 68.67 72.34 70.22C72.26 70.56 71.62 69.76 71.26 69.76C70.9 69.76 70.91 70.52 70.56 70.52C70.21 70.52 70.21 69.76 69.86 69.76C69.51 69.76 69.51 70.52 69.16 70.52C68.81 70.52 68.81 69.76 68.46 69.76C68.11 69.76 67.46 70.57 67.38 70.22C67.04 68.67 68.14 68.55 68.14 66.95C68.14 65.36 67.38 65.36 67.38 63.76C67.38 62.17 68.14 62.17 68.14 60.57C68.14 58.97 67.38 58.98 67.38 57.38C67.38 55.79 68.14 55.79 68.14 54.19C68.14 52.6 67.04 52.48 67.38 50.92C67.38 50.92 67.47 48.71 69.87 48.71C72.27 48.71 72.35 50.92 72.35 50.92V50.93Z" fill="white" stroke="#0D274D" stroke-width="0.5" stroke-linecap="round" stroke-linejoin="round"/>
<path d="M77.74 56.4805C77.99 57.5905 77.2 57.6805 77.2 58.8205C77.2 59.9605 77.75 59.9605 77.75 61.1005C77.75 62.2405 77.2 62.2405 77.2 63.3805C77.2 64.5205 77.75 64.5205 77.75 65.6605C77.75 66.8005 77.04 66.8505 77.21 67.9805C77.38 69.1605 77.99 69.1705 77.75 70.2805C77.7 70.5305 77.23 69.9505 76.98 69.9505C76.73 69.9505 76.73 70.5005 76.48 70.5005C76.23 70.5005 76.23 69.9505 75.98 69.9505C75.73 69.9505 75.73 70.5005 75.48 70.5005C75.23 70.5005 75.23 69.9505 74.98 69.9505C74.73 69.9505 74.26 70.5305 74.21 70.2805C73.96 69.1705 74.75 69.0805 74.75 67.9405C74.75 66.8005 74.2 66.8005 74.2 65.6605C74.2 64.5205 74.75 64.5205 74.75 63.3805C74.75 62.2405 74.2 62.2405 74.2 61.1005C74.2 59.9605 74.75 59.9605 74.75 58.8205C74.75 57.6805 73.96 57.5905 74.21 56.4805" fill="white"/>
<path d="M77.74 56.4805C77.99 57.5905 77.2 57.6805 77.2 58.8205C77.2 59.9605 77.75 59.9605 77.75 61.1005C77.75 62.2405 77.2 62.2405 77.2 63.3805C77.2 64.5205 77.75 64.5205 77.75 65.6605C77.75 66.8005 77.04 66.8505 77.21 67.9805C77.38 69.1605 77.99 69.1705 77.75 70.2805C77.7 70.5305 77.23 69.9505 76.98 69.9505C76.73 69.9505 76.73 70.5005 76.48 70.5005C76.23 70.5005 76.23 69.9505 75.98 69.9505C75.73 69.9505 75.73 70.5005 75.48 70.5005C75.23 70.5005 75.23 69.9505 74.98 69.9505C74.73 69.9505 74.26 70.5305 74.21 70.2805C73.96 69.1705 74.75 69.0805 74.75 67.9405C74.75 66.8005 74.2 66.8005 74.2 65.6605C74.2 64.5205 74.75 64.5205 74.75 63.3805C74.75 62.2405 74.2 62.2405 74.2 61.1005C74.2 59.9605 74.75 59.9605 74.75 58.8205C74.75 57.6805 73.96 57.5905 74.21 56.4805" stroke="#0D274D" stroke-width="0.5" stroke-linecap="round" stroke-linejoin="round"/>
<path d="M77.74 56.4804C77.99 57.5904 77.2 57.6804 77.2 58.8204C77.2 59.9604 77.75 59.9604 77.75 61.1004C77.75 62.2404 77.2 62.2404 77.2 63.3804C77.2 64.5204 77.75 64.5204 77.75 65.6604C77.75 66.8004 77.04 66.8504 77.21 67.9804C77.38 69.1604 77.99 69.1704 77.75 70.2804C77.7 70.5304 77.23 69.9504 76.98 69.9504C76.73 69.9504 76.73 70.5004 76.48 70.5004C76.23 70.5004 76.23 69.9504 75.98 69.9504C75.73 69.9504 75.73 70.5004 75.48 70.5004C75.23 70.5004 75.23 69.9504 74.98 69.9504C74.73 69.9504 74.26 70.5304 74.21 70.2804C73.96 69.1704 74.75 69.0804 74.75 67.9404C74.75 66.8004 74.2 66.8004 74.2 65.6604C74.2 64.5204 74.75 64.5204 74.75 63.3804C74.75 62.2404 74.2 62.2404 74.2 61.1004C74.2 59.9604 74.75 59.9604 74.75 58.8204C74.75 57.6804 73.96 57.5904 74.21 56.4804C74.21 56.4804 74.27 54.9004 75.99 54.9004C77.71 54.9004 77.76 56.4804 77.76 56.4804H77.74Z" fill="white" stroke="#0D274D" stroke-width="0.5" stroke-linecap="round" stroke-linejoin="round"/>
<path d="M78.65 71.5198C78.65 70.0398 77.45 68.8398 75.97 68.8398C74.49 68.8398 73.29 70.0398 73.29 71.5198" fill="#ABB3C0"/>
<path d="M78.65 71.5198C78.65 70.0398 77.45 68.8398 75.97 68.8398C74.49 68.8398 73.29 70.0398 73.29 71.5198" stroke="#0D274D" stroke-width="0.5" stroke-linecap="round" stroke-linejoin="round"/>
<path d="M66.17 71.5198C66.17 70.0398 64.97 68.8398 63.49 68.8398C62.01 68.8398 60.81 70.0398 60.81 71.5198" fill="#ABB3C0"/>
<path d="M66.17 71.5198C66.17 70.0398 64.97 68.8398 63.49 68.8398C62.01 68.8398 60.81 70.0398 60.81 71.5198" stroke="#0D274D" stroke-width="0.5" stroke-linecap="round" stroke-linejoin="round"/>
<path d="M74.7 71.5198C74.7 68.8898 72.57 66.7598 69.94 66.7598C67.31 66.7598 65.18 68.8898 65.18 71.5198" fill="#ABB3C0"/>
<path d="M74.7 71.5198C74.7 68.8898 72.57 66.7598 69.94 66.7598C67.31 66.7598 65.18 68.8898 65.18 71.5198" stroke="#0D274D" stroke-width="0.5" stroke-linecap="round" stroke-linejoin="round"/>
<path d="M0.75 71.6299H88.1" stroke="#0D274D" stroke-width="0.5" stroke-linecap="round" stroke-linejoin="round"/>
<path d="M47.66 6.44027C48.2565 6.44027 48.74 5.95674 48.74 5.36027C48.74 4.76381 48.2565 4.28027 47.66 4.28027C47.0635 4.28027 46.58 4.76381 46.58 5.36027C46.58 5.95674 47.0635 6.44027 47.66 6.44027Z" fill="white" stroke="#0D274D" stroke-width="0.5" stroke-linecap="round" stroke-linejoin="round"/>
<path d="M44.17 13.6405C44.7665 13.6405 45.25 13.1569 45.25 12.5605C45.25 11.964 44.7665 11.4805 44.17 11.4805C43.5735 11.4805 43.09 11.964 43.09 12.5605C43.09 13.1569 43.5735 13.6405 44.17 13.6405Z" fill="white" stroke="#0D274D" stroke-width="0.5" stroke-linecap="round" stroke-linejoin="round"/>
<path d="M42.24 1.33C42.5382 1.33 42.78 1.08823 42.78 0.79C42.78 0.491766 42.5382 0.25 42.24 0.25C41.9418 0.25 41.7 0.491766 41.7 0.79C41.7 1.08823 41.9418 1.33 42.24 1.33Z" fill="white" stroke="#0D274D" stroke-width="0.5" stroke-linecap="round" stroke-linejoin="round"/>
<path d="M67.36 12.83C67.6582 12.83 67.9 12.5882 67.9 12.29C67.9 11.9918 67.6582 11.75 67.36 11.75C67.0618 11.75 66.82 11.9918 66.82 12.29C66.82 12.5882 67.0618 12.83 67.36 12.83Z" fill="white" stroke="#0D274D" stroke-width="0.5" stroke-linecap="round" stroke-linejoin="round"/>
<path d="M55.35 27.3398C55.6482 27.3398 55.89 27.098 55.89 26.7998C55.89 26.5015 55.6482 26.2598 55.35 26.2598C55.0518 26.2598 54.81 26.5015 54.81 26.7998C54.81 27.098 55.0518 27.3398 55.35 27.3398Z" fill="white" stroke="#0D274D" stroke-width="0.5" stroke-linecap="round" stroke-linejoin="round"/>
<path d="M70.78 7.87973C71.3765 7.87973 71.86 7.39619 71.86 6.79973C71.86 6.20326 71.3765 5.71973 70.78 5.71973C70.1835 5.71973 69.7 6.20326 69.7 6.79973C69.7 7.39619 70.1835 7.87973 70.78 7.87973Z" fill="white" stroke="#0D274D" stroke-width="0.5" stroke-linecap="round" stroke-linejoin="round"/>
<path d="M56.3538 13.8468L54.9398 14.8435C54.3665 15.2476 54.2294 16.0399 54.6335 16.6132L54.6393 16.6214C55.0434 17.1947 55.8357 17.3318 56.409 16.9277L57.823 15.931C58.3963 15.5269 58.5334 14.7345 58.1293 14.1613L58.1236 14.1531C57.7195 13.5798 56.9271 13.4426 56.3538 13.8468Z" fill="#0D274D" stroke="#0D274D" stroke-width="0.5" stroke-linecap="round" stroke-linejoin="round"/>
<path d="M57.6472 20.2537L56.5986 18.7661C56.1722 18.1613 55.3362 18.0166 54.7313 18.4429L54.7232 18.4487C54.1183 18.8751 53.9736 19.7111 54.4 20.316L55.4485 21.8035C55.8749 22.4084 56.7109 22.5531 57.3158 22.1268L57.324 22.121C57.9289 21.6946 58.0736 20.8586 57.6472 20.2537Z" fill="#0D274D" stroke="#0D274D" stroke-width="0.5" stroke-linecap="round" stroke-linejoin="round"/>
<path d="M55.44 19.8398L50.71 21.1098L52.78 23.1798C53.4 23.7998 54.46 23.5198 54.69 22.6698L55.45 19.8498L55.44 19.8398Z" fill="#0D274D" stroke="#0D274D" stroke-width="0.5" stroke-linecap="round" stroke-linejoin="round"/>
<path d="M51.13 14.5603L55.15 16.8803V14.2103C55.15 13.3303 54.2 12.7803 53.44 13.2203L51.13 14.5603Z" fill="#0D274D" stroke="#0D274D" stroke-width="0.5" stroke-linecap="round" stroke-linejoin="round"/>
<path d="M60.83 16.2299L58.08 17.8199C57.79 17.9899 57.79 18.4099 58.08 18.5799L60.83 20.1699C61.12 20.3399 61.49 20.1299 61.49 19.7899V16.6199C61.49 16.2799 61.13 16.0699 60.83 16.2399V16.2299Z" fill="#0D274D" stroke="#0D274D" stroke-width="0.5" stroke-linecap="round" stroke-linejoin="round"/>
<path d="M52.39 14.3105C53.66 14.3105 55.15 14.7605 56.6 15.5805C57.49 16.0705 58.23 16.5605 58.98 17.3205C59.05 17.5205 59.08 17.8005 59.08 18.1205C59.08 18.4005 59.02 18.7905 58.92 18.9805C58.21 19.7105 57.58 20.2805 56.6 20.8205C55.15 21.6405 53.66 22.0905 52.39 22.0905C48.34 22.0905 46.13 19.4705 46.13 18.1305C46.13 16.7905 48.02 14.3205 52.39 14.3205V14.3105Z" fill="#ABB3C0" stroke="#0D274D" stroke-width="0.5" stroke-linecap="round" stroke-linejoin="round"/>
<path d="M48.87 15.0002C46.99 15.8402 46.14 17.2502 46.14 18.1202C46.14 18.9902 47.1 20.4402 48.91 21.3102C49.32 20.4102 49.56 19.3502 49.56 18.1902C49.56 17.0302 49.3 15.9102 48.87 14.9902V15.0002Z" fill="#0D274D" stroke="#0D274D" stroke-width="0.5" stroke-linecap="round" stroke-linejoin="round"/>
<path d="M66.229 25.3349L65.1501 26.0954C64.7122 26.4041 64.6075 27.0093 64.9161 27.4471L64.9219 27.4553C65.2305 27.8932 65.8357 27.9979 66.2736 27.6893L67.3525 26.9287C67.7903 26.6201 67.8951 26.0149 67.5864 25.5771L67.5807 25.5689C67.272 25.131 66.6669 25.0263 66.229 25.3349Z" fill="#0D274D" stroke="#0D274D" stroke-width="0.5" stroke-linecap="round" stroke-linejoin="round"/>
<path d="M67.219 30.213L66.4239 29.085C66.0961 28.6201 65.4554 28.5076 64.9927 28.8337C64.53 29.1599 64.4206 29.8012 64.7483 30.2661L65.5434 31.3941C65.8712 31.859 66.5119 31.9715 66.9746 31.6454C67.4373 31.3192 67.5467 30.6779 67.219 30.213Z" fill="#0D274D" stroke="#0D274D" stroke-width="0.5" stroke-linecap="round" stroke-linejoin="round"/>
<path d="M65.53 29.9004L61.91 30.8704L63.16 32.1204C63.78 32.7404 64.84 32.4604 65.07 31.6104L65.53 29.9004Z" fill="#0D274D" stroke="#0D274D" stroke-width="0.5" stroke-linecap="round" stroke-linejoin="round"/>
<path d="M62.24 25.8599L65.31 27.6299V26.0599C65.31 25.1799 64.36 24.6299 63.6 25.0699L62.24 25.8599Z" fill="#0D274D" stroke="#0D274D" stroke-width="0.5" stroke-linecap="round" stroke-linejoin="round"/>
<path d="M69.62 27.16L67.58 28.34C67.34 28.48 67.34 28.82 67.58 28.95L69.62 30.13C69.86 30.27 70.15 30.1 70.15 29.82V27.46C70.15 27.19 69.86 27.02 69.62 27.15V27.16Z" fill="#0D274D" stroke="#0D274D" stroke-width="0.5" stroke-linecap="round" stroke-linejoin="round"/>
<path d="M63.2 25.6799C64.17 25.6799 65.31 26.0199 66.42 26.6499C67.1 27.0299 67.67 27.3999 68.24 27.9799C68.29 28.1299 68.32 28.3499 68.32 28.5899C68.32 28.8099 68.27 29.1099 68.2 29.2399C67.66 29.7999 67.17 30.2299 66.43 30.6399C65.32 31.2599 64.18 31.6099 63.21 31.6099C60.12 31.6099 58.43 29.6099 58.43 28.5799C58.43 27.5499 59.87 25.6699 63.21 25.6699L63.2 25.6799Z" fill="#ABB3C0" stroke="#0D274D" stroke-width="0.5" stroke-linecap="round" stroke-linejoin="round"/>
<path d="M60.51 26.21C59.08 26.85 58.42 27.93 58.42 28.59C58.42 29.25 59.16 30.36 60.54 31.03C60.85 30.34 61.04 29.53 61.04 28.65C61.04 27.77 60.84 26.91 60.51 26.21Z" fill="#0D274D" stroke="#0D274D" stroke-width="0.5" stroke-linecap="round" stroke-linejoin="round"/>
<path d="M72.7584 15.5937L72.0064 16.1237C71.704 16.3369 71.6316 16.7549 71.8448 17.0574L71.8506 17.0656C72.0638 17.368 72.4818 17.4404 72.7842 17.2272L73.5362 16.6971C73.8386 16.4839 73.911 16.0659 73.6978 15.7635L73.692 15.7553C73.4788 15.4529 73.0608 15.3805 72.7584 15.5937Z" fill="#0D274D" stroke="#0D274D" stroke-width="0.5" stroke-linecap="round" stroke-linejoin="round"/>
<path d="M73.4341 18.9685L72.881 18.1838C72.6551 17.8633 72.2122 17.7867 71.8917 18.0126C71.5712 18.2385 71.4945 18.6815 71.7204 19.002L72.2735 19.7866C72.4994 20.1071 72.9424 20.1838 73.2629 19.9579C73.5834 19.7319 73.6601 19.289 73.4341 18.9685Z" fill="#0D274D" stroke="#0D274D" stroke-width="0.5" stroke-linecap="round" stroke-linejoin="round"/>
<path d="M72.28 18.7607L69.78 19.4307L70.58 20.2307C71.04 20.6907 71.82 20.4807 71.99 19.8507L72.28 18.7607Z" fill="#0D274D" stroke="#0D274D" stroke-width="0.5" stroke-linecap="round" stroke-linejoin="round"/>
<path d="M70 15.9705L72.13 17.2005V15.9605C72.13 15.4205 71.55 15.0805 71.08 15.3505L70.01 15.9705H70Z" fill="#0D274D" stroke="#0D274D" stroke-width="0.5" stroke-linecap="round" stroke-linejoin="round"/>
<path d="M75.1 16.8701L73.69 17.6801C73.53 17.7701 73.53 18.0101 73.69 18.1101L75.1 18.9201C75.26 19.0101 75.47 18.9001 75.47 18.7101V17.0801C75.47 16.8901 75.27 16.7701 75.1 16.8701Z" fill="#0D274D" stroke="#0D274D" stroke-width="0.5" stroke-linecap="round" stroke-linejoin="round"/>
<path d="M70.66 15.8408C71.33 15.8408 72.12 16.0808 72.88 16.5108C73.35 16.7708 73.74 17.0308 74.14 17.4308C74.17 17.5408 74.19 17.6808 74.19 17.8508C74.19 18.0008 74.16 18.2108 74.11 18.3008C73.74 18.6908 73.4 18.9908 72.89 19.2708C72.12 19.7008 71.33 19.9408 70.67 19.9408C68.53 19.9408 67.37 18.5608 67.37 17.8508C67.37 17.1408 68.37 15.8408 70.67 15.8408H70.66Z" fill="#ABB3C0" stroke="#0D274D" stroke-width="0.5" stroke-linecap="round" stroke-linejoin="round"/>
<path d="M68.8 16.2002C67.81 16.6402 67.36 17.3902 67.36 17.8502C67.36 18.3102 67.87 19.0702 68.82 19.5402C69.03 19.0602 69.16 18.5002 69.16 17.8902C69.16 17.2802 69.02 16.6902 68.8 16.2002Z" fill="#0D274D" stroke="#0D274D" stroke-width="0.5" stroke-linecap="round" stroke-linejoin="round"/>
</g>
<defs>
<clipPath id="clip0_6485_92435">
<rect width="87.85" height="71.89" fill="white" transform="translate(0.5)"/>
</clipPath>
</defs>
</svg>
