<svg width="38" height="38" viewBox="0 0 38 38" fill="none" xmlns="http://www.w3.org/2000/svg">
<path fill-rule="evenodd" clip-rule="evenodd" d="M9.5 3.31746V34.6825C9.5 36.5147 10.9621 38 12.7656 38H34.7344C36.5379 38 38 36.5147 38 34.6825V8.72963C38 7.84346 37.651 6.99413 37.0308 6.37097L31.6443 0.958803C31.0329 0.34453 30.2078 0 29.3479 0H12.7656C10.9621 0 9.5 1.48528 9.5 3.31746ZM11.5781 34.6825V3.31746C11.5781 2.65121 12.1098 2.11111 12.7656 2.11111H28.9453V9.34921C28.9453 10.5984 29.9422 11.6111 31.1719 11.6111H35.9219V34.6825C35.9219 35.3488 35.3902 35.8889 34.7344 35.8889H12.7656C12.1098 35.8889 11.5781 35.3488 11.5781 34.6825ZM35.9219 9.5V8.72963C35.9219 8.40739 35.795 8.09854 35.5694 7.87194L31.0234 3.30427V9.34921C31.0234 9.43249 31.0899 9.5 31.1719 9.5H35.9219Z" fill="#9D9C9B"/>
<path fill-rule="evenodd" clip-rule="evenodd" d="M24.3438 15.5859C24.3438 15.0121 24.809 14.5469 25.3828 14.5469H32.2109C32.7848 14.5469 33.25 15.0121 33.25 15.5859C33.25 16.1598 32.7848 16.625 32.2109 16.625H25.3828C24.809 16.625 24.3438 16.1598 24.3438 15.5859Z" fill="#69C997"/>
<path fill-rule="evenodd" clip-rule="evenodd" d="M24.3438 20.3359C24.3438 19.7621 24.809 19.2969 25.3828 19.2969H32.2109C32.7848 19.2969 33.25 19.7621 33.25 20.3359C33.25 20.9098 32.7848 21.375 32.2109 21.375H25.3828C24.809 21.375 24.3438 20.9098 24.3438 20.3359Z" fill="#54AD7D"/>
<path fill-rule="evenodd" clip-rule="evenodd" d="M24.3438 25.0859C24.3438 24.5121 24.809 24.0469 25.3828 24.0469H32.2109C32.7848 24.0469 33.25 24.5121 33.25 25.0859C33.25 25.6598 32.7848 26.125 32.2109 26.125H25.3828C24.809 26.125 24.3438 25.6598 24.3438 25.0859Z" fill="#2B593D"/>
<path d="M0 10.9844C0 10.0006 0.797493 9.20312 1.78125 9.20312H19.5938C20.5775 9.20312 21.375 10.0006 21.375 10.9844V28.7969C21.375 29.7806 20.5775 30.5781 19.5938 30.5781H1.78125C0.797492 30.5781 0 29.7806 0 28.7969V10.9844Z" fill="#3D8A58"/>
<path d="M5.9375 25.8536L9.27386 19.6436L6.24597 13.9531H8.55139L10.5078 17.7766L12.4235 13.9531H14.7046L11.6767 19.7329L15.0131 25.8536H12.6346L10.4672 21.738L8.29974 25.8536H5.9375Z" fill="white"/>
</svg>
