<svg width="18" height="18" viewBox="0 0 18 18" fill="none" xmlns="http://www.w3.org/2000/svg">
<path fill-rule="evenodd" clip-rule="evenodd" d="M12.4425 9.16295L9.00001 13.4604H8.99439L5.55751 9.16295C5.36626 8.91545 5.40564 8.5667 5.64751 8.36982C5.89501 8.17857 6.24376 8.21795 6.44064 8.45982L8.50501 11.0417V2.77295C8.50501 2.46357 8.75814 2.21045 9.06751 2.21045C9.37689 2.21045 9.63002 2.46357 9.63002 2.77295V10.8729L11.5594 8.45982C11.7563 8.21795 12.1106 8.17295 12.3525 8.36982C12.5944 8.5667 12.6338 8.92107 12.4425 9.16295ZM15.75 11.9474C15.75 11.638 16.0031 11.3849 16.3125 11.3849C16.6219 11.3849 16.875 11.638 16.875 11.9474V15.103C16.875 15.4124 16.6219 15.6655 16.3125 15.6655H1.6875C1.37812 15.6655 1.125 15.4124 1.125 15.103V11.9474C1.125 11.638 1.37812 11.3849 1.6875 11.3849C1.99687 11.3849 2.25 11.638 2.25 11.9474V14.5405H15.75V11.9474Z" fill="#1B1C1D"/>
</svg>
