<svg width="37" height="36" viewBox="0 0 37 36" fill="none" xmlns="http://www.w3.org/2000/svg">
<path opacity="0.5" d="M5.1665 15C5.1665 9.34315 5.1665 6.51472 6.92386 4.75736C8.68122 3 11.5096 3 17.1665 3H20.1665C25.8234 3 28.6518 3 30.4091 4.75736C32.1665 6.51472 32.1665 9.34315 32.1665 15V21C32.1665 26.6569 32.1665 29.4853 30.4091 31.2426C28.6518 33 25.8234 33 20.1665 33H17.1665C11.5096 33 8.68122 33 6.92386 31.2426C5.1665 29.4853 5.1665 26.6569 5.1665 21V15Z" fill="#0070D2"/>
<path fill-rule="evenodd" clip-rule="evenodd" d="M11.5415 18C11.5415 17.3787 12.0452 16.875 12.6665 16.875H24.6665C25.2878 16.875 25.7915 17.3787 25.7915 18C25.7915 18.6213 25.2878 19.125 24.6665 19.125H12.6665C12.0452 19.125 11.5415 18.6213 11.5415 18Z" fill="#0070D2"/>
<path fill-rule="evenodd" clip-rule="evenodd" d="M11.5415 12C11.5415 11.3787 12.0452 10.875 12.6665 10.875H24.6665C25.2878 10.875 25.7915 11.3787 25.7915 12C25.7915 12.6213 25.2878 13.125 24.6665 13.125H12.6665C12.0452 13.125 11.5415 12.6213 11.5415 12Z" fill="#0070D2"/>
<path fill-rule="evenodd" clip-rule="evenodd" d="M11.5415 24C11.5415 23.3787 12.0452 22.875 12.6665 22.875H20.1665C20.7878 22.875 21.2915 23.3787 21.2915 24C21.2915 24.6213 20.7878 25.125 20.1665 25.125H12.6665C12.0452 25.125 11.5415 24.6213 11.5415 24Z" fill="#0070D2"/>
</svg>
