<svg width="17" height="17" viewBox="0 0 17 17" fill="none" xmlns="http://www.w3.org/2000/svg">
<path fill-rule="evenodd" clip-rule="evenodd" d="M1.99469 0.695262L8.92105 7.55533L15.8476 0.695262C16.1104 0.434913 16.5366 0.434913 16.7994 0.695262C17.0623 0.955612 17.0623 1.37772 16.7994 1.63807L9.87276 8.49867L16.7994 15.3594C17.0623 15.6198 17.0623 16.0419 16.7994 16.3022C16.5366 16.5626 16.1104 16.5626 15.8476 16.3022L8.92105 9.44133L1.99469 16.3022C1.73184 16.5626 1.30568 16.5626 1.04284 16.3022C0.779992 16.0419 0.779992 15.6198 1.04284 15.3594L7.96868 8.49867L1.04284 1.63807C0.779992 1.37772 0.779992 0.955612 1.04284 0.695262C1.30568 0.434913 1.73184 0.434913 1.99469 0.695262Z" fill="#767676"/>
</svg>
