<svg width="26" height="18" viewBox="0 0 26 18" fill="none" xmlns="http://www.w3.org/2000/svg">
  <path
    d="M21.2275 12.8175V14.8304H25.0888C25.2934 14.8304 25.4344 14.6254 25.3614 14.4343L24.783 12.9217C24.7574 12.8546 24.7574 12.7804 24.783 12.7133L25.3614 11.2007C25.4344 11.0097 25.2934 10.8047 25.0888 10.8047H21.2275V12.8175Z"
    fill="#0070D2" />
  <path
    d="M4.35338 12.8175V14.8304H0.475164C0.27063 14.8304 0.129582 14.6254 0.202616 14.4344L0.780981 12.9218C0.806621 12.8547 0.806621 12.7804 0.780981 12.7134L0.202616 11.2007C0.129582 11.0097 0.27063 10.8047 0.475164 10.8047H4.35338V12.8175Z"
    fill="#0070D2" />
  <path
    d="M3.90088 3.77312C3.90088 2.10134 5.25613 0.746094 6.92791 0.746094H18.8344C20.5061 0.746094 21.8614 2.10134 21.8614 3.77312V14.4371C21.8614 16.1089 20.5061 17.4641 18.8344 17.4641H6.92791C5.25613 17.4641 3.90088 16.1089 3.90088 14.4371V3.77312Z"
    fill="#00509E" />
  <path
    d="M16.3614 4.50774H9.40133C9.19749 4.50774 9.03223 4.34248 9.03223 4.13864C9.03223 3.93479 9.19749 3.76953 9.40133 3.76953H16.3614C16.5653 3.76953 16.7305 3.93479 16.7305 4.13864C16.7305 4.34248 16.5652 4.50774 16.3614 4.50774Z"
    fill="white" />
  <path
    d="M15.3896 7.82415H10.3725C10.1687 7.82415 10.0034 7.65889 10.0034 7.45504C10.0034 7.2512 10.1687 7.08594 10.3725 7.08594H15.3897C15.5935 7.08594 15.7588 7.2512 15.7588 7.45504C15.7588 7.65889 15.5935 7.82415 15.3896 7.82415Z"
    fill="white" />
  <path
    d="M18.2476 6.1679H7.51461C7.31077 6.1679 7.14551 6.00264 7.14551 5.79879C7.14551 5.59495 7.31077 5.42969 7.51461 5.42969H18.2476C18.4514 5.42969 18.6167 5.59495 18.6167 5.79879C18.6167 6.00264 18.4514 6.1679 18.2476 6.1679Z"
    fill="white" />
  <path
    d="M22.5594 13.5237C22.5594 13.9118 22.2546 14.2264 21.8665 14.2264C18.612 14.2264 6.71167 14.2264 3.70042 14.2264C3.31233 14.2264 3.00439 13.9118 3.00439 13.5237V11.5035C3.00439 11.1154 3.31233 10.8008 3.70043 10.8008C6.71167 10.8008 18.612 10.8008 21.8665 10.8008C22.2546 10.8008 22.5594 11.1154 22.5594 11.5035V13.5237Z"
    fill="#57AEFA" />
</svg>