<svg width="15" height="14" viewBox="0 0 15 14" fill="none" xmlns="http://www.w3.org/2000/svg">
<g id="calendar">
<path id="Combined Shape" fill-rule="evenodd" clip-rule="evenodd" d="M10.335 2.07812H13.1875C13.4281 2.07812 13.625 2.275 13.625 2.51562V12.2456C13.625 12.4862 13.4281 12.6831 13.1875 12.6831H1.82125C1.58062 12.6831 1.38375 12.4862 1.38375 12.2456V5.41187C1.38375 5.40312 1.38156 5.39547 1.37937 5.38781C1.37719 5.38016 1.375 5.3725 1.375 5.36375C1.375 5.34625 1.38375 5.31562 1.38375 5.31562V2.51562C1.38375 2.275 1.58062 2.07812 1.82125 2.07812H4.66937V1.3125C4.66937 1.07187 4.86625 0.875 5.10687 0.875C5.3475 0.875 5.54437 1.07187 5.54437 1.3125V2.07812H9.46V1.3125C9.46 1.07187 9.65687 0.875 9.8975 0.875C10.1381 0.875 10.335 1.07187 10.335 1.3125V2.07812ZM4.67375 3.675V2.95312H4.66937H2.25875V4.92625H12.7544V2.95312H10.3394V3.675C10.3394 3.91562 10.1425 4.1125 9.90187 4.1125C9.66125 4.1125 9.46437 3.91562 9.46437 3.675V2.95312H5.54875V3.675C5.54875 3.91562 5.35188 4.1125 5.11125 4.1125C4.87063 4.1125 4.67375 3.91562 4.67375 3.675ZM2.26313 5.80125V11.8125H12.7544V5.80125H2.26313ZM7.10186 9.73879L9.42498 6.83379L9.42936 6.82942C9.58248 6.64129 9.85811 6.60629 10.0462 6.75942C10.2344 6.91254 10.265 7.18817 10.1162 7.37629L7.48686 10.6663C7.40811 10.7625 7.28998 10.8194 7.16748 10.8282H7.14123C7.02311 10.8282 6.91373 10.7844 6.83061 10.7013L5.39561 9.26629C5.22498 9.09567 5.22498 8.82004 5.39561 8.64942C5.56623 8.47879 5.84186 8.47879 6.01248 8.64942L7.10186 9.73879Z" fill="#1B1C1D"/>
</g>
</svg>
