<svg width="17" height="16" viewBox="0 0 17 16" fill="none" xmlns="http://www.w3.org/2000/svg">
<g id="download">
<path id="Combined Shape" fill-rule="evenodd" clip-rule="evenodd" d="M11.727 8.14497L8.66701 11.965H8.66201L5.60701 8.14497C5.43701 7.92497 5.47201 7.61497 5.68701 7.43997C5.90701 7.26997 6.21701 7.30497 6.392 7.51997L8.22701 9.81497V2.46497C8.22701 2.18997 8.45201 1.96497 8.72701 1.96497C9.00201 1.96497 9.22701 2.18997 9.22701 2.46497V9.66497L10.942 7.51997C11.117 7.30497 11.432 7.26497 11.647 7.43997C11.862 7.61497 11.897 7.92997 11.727 8.14497ZM14.667 10.62C14.667 10.345 14.892 10.12 15.167 10.12C15.442 10.12 15.667 10.345 15.667 10.62V13.425C15.667 13.7 15.442 13.925 15.167 13.925H2.16699C1.89199 13.925 1.66699 13.7 1.66699 13.425V10.62C1.66699 10.345 1.89199 10.12 2.16699 10.12C2.44199 10.12 2.66699 10.345 2.66699 10.62V12.925H14.667V10.62Z" fill="#0070D2"/>
</g>
</svg>
