<svg width="98" height="83" viewBox="0 0 98 83" fill="none" xmlns="http://www.w3.org/2000/svg">
<g id="Illustration">
<path id="Vector" d="M31.2725 37.2194C39.5174 37.2194 46.2012 30.5356 46.2012 22.2907C46.2012 14.0457 39.5174 7.36194 31.2725 7.36194C23.0276 7.36194 16.3438 14.0457 16.3438 22.2907C16.3438 30.5356 23.0276 37.2194 31.2725 37.2194Z" fill="#0D274D" stroke="#0D274D" stroke-width="0.545641" stroke-miterlimit="10"/>
<path id="Vector_2" d="M9.75032 25.7722H26.6761C28.4112 25.7722 29.819 27.18 29.819 28.9151C29.819 30.6502 28.4112 32.058 26.6761 32.058H9.75032C8.01518 32.058 6.60742 30.6502 6.60742 28.9151C6.60742 27.18 8.01518 25.7722 9.75032 25.7722Z" fill="white" stroke="#0D274D" stroke-width="0.545641" stroke-miterlimit="10"/>
<g id="Vector_3">
<path d="M8.32227 82.0818C8.32227 82.0818 21.3085 53.9486 32.0686 53.8613C42.8177 53.774 56.3495 72.5877 59.3069 82.0818" fill="white"/>
<path d="M8.32227 82.0818C8.32227 82.0818 21.3085 53.9486 32.0686 53.8613C42.8177 53.774 56.3495 72.5877 59.3069 82.0818" stroke="#0D274D" stroke-width="0.545641" stroke-miterlimit="10"/>
</g>
<g id="Vector_4">
<path d="M41.0919 81.9513C41.0919 81.9513 38.2327 58.8598 32.8418 54.0145C35.3845 54.2983 45.1842 54.2874 59.0434 81.875" fill="#ABB3C0"/>
<path d="M41.0919 81.9513C41.0919 81.9513 38.2327 58.8598 32.8418 54.0145C35.3845 54.2983 45.1842 54.2874 59.0434 81.875" stroke="#0D274D" stroke-width="0.545641" stroke-linecap="round" stroke-linejoin="round"/>
</g>
<g id="Vector_5">
<path d="M37.3301 82.0816C37.3301 82.0816 52.8263 30.3876 63.5863 30.3003C74.3354 30.213 85.3574 72.5875 88.3147 82.0816" fill="white"/>
<path d="M37.3301 82.0816C37.3301 82.0816 52.8263 30.3876 63.5863 30.3003C74.3354 30.213 85.3574 72.5875 88.3147 82.0816" stroke="#0D274D" stroke-width="0.545641" stroke-miterlimit="10"/>
</g>
<g id="Vector_6">
<path d="M74.0831 81.9732C74.0831 81.9732 71.5404 51.1336 64.0869 30.3337C65.7347 30.6393 75.8114 31.198 88.001 81.9098" fill="#ABB3C0"/>
<path d="M74.0831 81.9732C74.0831 81.9732 71.5404 51.1336 64.0869 30.3337C65.7347 30.6393 75.8114 31.198 88.001 81.9098" stroke="#0D274D" stroke-width="0.545641" stroke-linecap="round" stroke-linejoin="round"/>
</g>
<path id="Vector_7" d="M31.3632 77.8365C32.138 79.1242 31.7234 80.7938 30.4357 81.5687C29.1479 82.3435 27.4783 81.9288 26.7035 80.6411C26.1906 79.779 26.1796 78.7095 26.7035 77.8474C26.9872 77.3673 26.8562 76.7561 26.3979 76.4287C24.2917 74.9664 23.7679 72.0745 25.2302 69.9683C26.6925 67.8622 29.5844 67.3383 31.6906 68.8007C33.7968 70.263 34.3206 73.1549 32.8583 75.2611C32.5418 75.7194 32.149 76.1122 31.6906 76.4287C31.2323 76.7452 31.0904 77.3563 31.3741 77.8365H31.3632Z" fill="white" stroke="#0D274D" stroke-width="0.545641" stroke-miterlimit="10"/>
<path id="Vector_8" d="M85.1587 71.7583C85.1587 72.0529 85.2133 72.3367 85.366 72.5877C85.7698 73.2533 85.9663 74.0172 85.9444 74.792C85.9226 75.5122 85.7043 76.2107 85.3224 76.8218C84.7004 77.8258 83.6636 78.5133 82.496 78.7097C82.3868 78.7206 82.2668 78.7316 82.1577 78.7425C79.9096 78.8844 77.9672 77.182 77.8253 74.923C77.8253 74.8466 77.8253 74.7593 77.8253 74.6829C77.8253 74.6283 77.8253 74.5738 77.8253 74.5083C77.8471 73.8317 78.0435 73.1769 78.3927 72.5877C78.8183 71.8783 78.6219 70.9507 77.9453 70.4815C74.7915 68.2989 74.0058 63.9774 76.1884 60.8236C78.3709 57.6698 82.6924 56.8841 85.8462 59.0667C89 61.2492 89.7857 65.5707 87.6032 68.7245C87.123 69.412 86.5337 70.0122 85.8462 70.4815C85.4315 70.7761 85.1696 71.2454 85.1587 71.7583Z" fill="white" stroke="#0D274D" stroke-width="0.545641" stroke-miterlimit="10"/>
<path id="Vector_9" d="M82.2974 79.0158V81.9404H80.2021L80.6059 78.8739C81.0533 79.0158 81.5226 79.0812 81.9919 79.0485C82.101 79.0485 82.1992 79.0376 82.3083 79.0158H82.2974Z" fill="white" stroke="#0D274D" stroke-width="0.545641" stroke-miterlimit="10"/>
<path id="Vector_10" d="M97 82.0927H60.2675H1" stroke="#0D274D" stroke-width="0.545641" stroke-miterlimit="10" stroke-linecap="round"/>
<path id="Vector_11" d="M68.3327 5.91089H88.074C90.0928 5.91089 91.7407 7.54786 91.7407 9.57764C91.7407 11.5965 90.1038 13.2443 88.074 13.2443H68.3327C66.3138 13.2443 64.666 11.6074 64.666 9.57764C64.666 7.55877 66.3029 5.91089 68.3327 5.91089Z" fill="white" stroke="#0D274D" stroke-width="0.545641" stroke-miterlimit="10"/>
<path id="Vector_12" d="M54.9851 0.999878H74.7263C76.7452 0.999878 78.393 2.63685 78.393 4.66663C78.393 6.6855 76.7561 8.33332 74.7263 8.33332H54.9851C52.9662 8.33332 51.3184 6.69641 51.3184 4.66663C51.3184 2.64776 52.9553 0.999878 54.9851 0.999878Z" fill="white" stroke="#0D274D" stroke-width="0.545641" stroke-miterlimit="10"/>
<path id="Vector_13" d="M34.1776 82.0277C36.5884 82.0277 38.5427 80.0734 38.5427 77.6626C38.5427 75.2518 36.5884 73.2975 34.1776 73.2975C31.7668 73.2975 29.8125 75.2518 29.8125 77.6626C29.8125 80.0734 31.7668 82.0277 34.1776 82.0277Z" fill="#0D274D" stroke="#0D274D" stroke-width="0.545641" stroke-miterlimit="10"/>
</g>
</svg>
