<svg width="16" height="20" viewBox="0 0 16 20" fill="none" xmlns="http://www.w3.org/2000/svg">
<path fill-rule="evenodd" clip-rule="evenodd" d="M1 10C1 6.14 4.14 3 8 3C11.86 3 15 6.14 15 10C15 13.86 11.86 17 8 17C4.14 17 1 13.86 1 10ZM2 10C2 13.31 4.69 16 8 16C11.31 16 14 13.31 14 10C14 6.69 11.31 4 8 4C4.69 4 2 6.69 2 10ZM7.04498 12.055L10.555 7.36499V7.35999C10.72 7.13999 11.035 7.09499 11.255 7.25999C11.475 7.42499 11.52 7.73999 11.355 7.95999L7.50998 13.1C7.42498 13.215 7.29498 13.29 7.15498 13.3H7.10998C6.97998 13.3 6.85998 13.25 6.76498 13.165L4.50998 11.04C4.30998 10.855 4.29998 10.535 4.48998 10.335C4.67998 10.135 4.99498 10.125 5.19498 10.315L7.04498 12.055Z" fill="#399E20"/>
</svg>
