<svg width="16" height="16" viewBox="0 0 16 16" fill="none" xmlns="http://www.w3.org/2000/svg">
<g id="exclamation-circle-outline">
<path id="Combined Shape" fill-rule="evenodd" clip-rule="evenodd" d="M10.9799 1.785L14.2149 5.02C14.3949 5.2 14.4999 5.455 14.4999 5.71V10.285C14.4999 10.545 14.3999 10.79 14.2149 10.975L10.9799 14.21C10.7949 14.395 10.5499 14.495 10.2899 14.495H5.71488C5.45988 14.495 5.20488 14.39 5.02488 14.21L1.78988 10.975C1.60488 10.79 1.50488 10.545 1.50488 10.285V5.71C1.50488 5.455 1.60988 5.2 1.78988 5.02L5.02488 1.785C5.20488 1.605 5.45488 1.5 5.71488 1.5H10.2899C10.5499 1.5 10.7949 1.6 10.9799 1.785ZM5.72988 13.5H10.2849L13.4949 10.27V5.71L10.2749 2.5H5.70988L2.49988 5.73V10.29L5.72988 13.5ZM8.32991 4.54499C8.18491 4.46999 8.01491 4.43999 7.84991 4.46999C7.68491 4.51999 7.53991 4.61999 7.43991 4.75999C7.33991 4.89999 7.28491 5.06499 7.28491 5.23999L7.32491 5.95499C7.34491 6.32999 7.36491 6.69999 7.38991 7.06999L7.39456 7.15056C7.423 7.64323 7.4512 8.13186 7.47491 8.62499C7.48491 8.76499 7.54491 8.89999 7.64991 8.99499C7.75491 9.08999 7.88991 9.14499 8.02991 9.14499C8.17491 9.14499 8.30991 9.08999 8.40991 8.98999C8.50991 8.88999 8.56991 8.75499 8.57491 8.60999V8.06999C8.5814 7.94356 8.59208 7.81712 8.60289 7.68932C8.60875 7.62002 8.61464 7.55031 8.61991 7.47999C8.64991 7.10999 8.67991 6.72999 8.67991 6.35999C8.68491 6.20999 8.69491 6.05999 8.70491 5.90999L8.70591 5.89537L8.70591 5.89533C8.72057 5.68043 8.73491 5.47021 8.73491 5.25999C8.74491 5.13499 8.72491 5.00999 8.66991 4.89999C8.59991 4.74999 8.48491 4.62499 8.33491 4.54499H8.32991ZM8.50992 10.305C8.44492 10.235 8.36492 10.18 8.27492 10.145C8.18992 10.11 8.09492 10.09 7.99992 10.085C7.80992 10.09 7.63492 10.17 7.49992 10.3C7.36992 10.435 7.29492 10.615 7.28992 10.805C7.28992 10.9 7.30492 10.99 7.33992 11.08C7.37492 11.165 7.42492 11.245 7.48992 11.315C7.55492 11.38 7.63492 11.435 7.71992 11.47C7.80492 11.505 7.89992 11.525 7.98992 11.525C8.17492 11.52 8.35492 11.44 8.48492 11.31C8.61492 11.18 8.69492 11.005 8.70492 10.815C8.70492 10.72 8.68992 10.625 8.65492 10.535C8.61992 10.445 8.56992 10.365 8.49992 10.3L8.50992 10.305Z" fill="#F4473E"/>
</g>
</svg>
