<svg width="12" height="12" viewBox="0 0 12 12" fill="none" xmlns="http://www.w3.org/2000/svg">
<path fill-rule="evenodd" clip-rule="evenodd" d="M6 0.75C3.105 0.75 0.75 3.105 0.75 6C0.75 8.895 3.105 11.25 6 11.25C8.895 11.25 11.25 8.895 11.25 6C11.25 3.105 8.895 0.75 6 0.75ZM6 10.5C3.5175 10.5 1.5 8.4825 1.5 6C1.5 3.5175 3.5175 1.5 6 1.5C8.4825 1.5 10.5 3.5175 10.5 6C10.5 8.4825 8.4825 10.5 6 10.5ZM5.98499 5.23499C5.77874 5.23499 5.60999 5.40374 5.60999 5.60999V8.60999C5.60999 8.81624 5.77874 8.98499 5.98499 8.98499C6.19124 8.98499 6.35998 8.81624 6.35998 8.60999V5.60999C6.35998 5.40374 6.19124 5.23499 5.98499 5.23499ZM5.4375 3.9375C5.4375 3.62625 5.68875 3.375 6 3.375C6.31125 3.375 6.5625 3.62625 6.5625 3.9375C6.5625 4.24875 6.31125 4.5 6 4.5C5.68875 4.5 5.4375 4.24875 5.4375 3.9375Z" fill="#1B1C1D"/>
</svg>
