<svg width="99" height="25" viewBox="0 0 99 25" fill="none" xmlns="http://www.w3.org/2000/svg">
<path d="M0 3.18182H92.8977V1L99 3.18182V25H0L5.13117 14.062L0 3.18182Z" fill="#DDF2D8"/>
<path d="M16.7388 17.148C17.4828 17.148 18.0948 16.912 18.5748 16.44C18.9908 16.032 19.2148 15.536 19.2468 14.952H20.4828C20.4508 15.52 20.2748 16.048 19.9548 16.536C19.6268 17.032 19.1908 17.424 18.6468 17.712C18.0628 18.024 17.4188 18.18 16.7148 18.18C15.4108 18.18 14.4028 17.736 13.6908 16.848C13.0668 16.064 12.7548 15.008 12.7548 13.68C12.7548 12.16 13.1828 10.996 14.0388 10.188C14.7508 9.516 15.6748 9.18 16.8108 9.18C17.8908 9.18 18.7868 9.512 19.4988 10.176C20.0908 10.72 20.4148 11.372 20.4708 12.132H19.2348C19.1548 11.5 18.8708 11.008 18.3828 10.656C17.9508 10.352 17.4268 10.2 16.8108 10.2C15.8908 10.2 15.1828 10.528 14.6868 11.184C14.2308 11.784 14.0028 12.616 14.0028 13.68C14.0028 14.848 14.2908 15.744 14.8668 16.368C15.3468 16.888 15.9708 17.148 16.7388 17.148ZM21.437 14.88C21.437 13.736 21.777 12.872 22.457 12.288C23.001 11.816 23.689 11.58 24.521 11.58C25.489 11.58 26.249 11.888 26.801 12.504C27.329 13.08 27.593 13.872 27.593 14.88C27.593 16.008 27.261 16.868 26.597 17.46C26.053 17.94 25.357 18.18 24.509 18.18C23.541 18.18 22.777 17.86 22.217 17.22C21.697 16.636 21.437 15.856 21.437 14.88ZM22.637 14.88C22.637 15.68 22.841 16.292 23.249 16.716C23.585 17.068 24.013 17.244 24.533 17.244C25.141 17.244 25.609 17.016 25.937 16.56C26.241 16.144 26.393 15.584 26.393 14.88C26.393 14.064 26.193 13.448 25.793 13.032C25.465 12.688 25.041 12.516 24.521 12.516C23.921 12.516 23.453 12.744 23.117 13.2C22.797 13.616 22.637 14.176 22.637 14.88ZM30.0623 18H28.9103V11.76H29.8583L29.9783 12.492C30.4023 11.884 31.0143 11.58 31.8143 11.58C32.6863 11.58 33.2983 11.908 33.6503 12.564C34.0663 11.908 34.7423 11.58 35.6783 11.58C36.3743 11.58 36.9103 11.792 37.2863 12.216C37.6223 12.608 37.7903 13.144 37.7903 13.824V18H36.6383V13.908C36.6383 13.012 36.2343 12.564 35.4263 12.564C34.9463 12.564 34.5623 12.752 34.2743 13.128C34.0423 13.432 33.9263 13.788 33.9263 14.196V18H32.7743V13.908C32.7743 13.012 32.3703 12.564 31.5623 12.564C31.1143 12.564 30.7423 12.74 30.4463 13.092C30.1903 13.388 30.0623 13.744 30.0623 14.16V18ZM40.6343 10.716H39.3383V9.36H40.6343V10.716ZM40.5623 18H39.4103V11.76H40.5623V18ZM43.3983 18H42.2463V11.76H43.1943L43.3263 12.552C43.7903 11.904 44.4223 11.58 45.2223 11.58C45.9583 11.58 46.5223 11.808 46.9143 12.264C47.2583 12.672 47.4303 13.228 47.4303 13.932V18H46.2783V13.944C46.2783 13.024 45.8343 12.564 44.9463 12.564C44.4823 12.564 44.1023 12.724 43.8063 13.044C43.5343 13.332 43.3983 13.7 43.3983 14.148V18ZM48.9828 18.42H50.2188C50.2748 18.74 50.4348 18.988 50.6988 19.164C50.9708 19.34 51.3268 19.428 51.7668 19.428C52.3828 19.428 52.8428 19.268 53.1468 18.948C53.4028 18.676 53.5308 18.296 53.5308 17.808V17.004C53.0668 17.548 52.3748 17.82 51.4548 17.82C50.6228 17.82 49.9468 17.52 49.4268 16.92C48.9388 16.36 48.6948 15.632 48.6948 14.736C48.6948 13.696 48.9908 12.892 49.5828 12.324C50.0868 11.828 50.7348 11.58 51.5268 11.58C52.4228 11.58 53.0988 11.916 53.5548 12.588L53.7348 11.76H54.6828V17.868C54.6828 18.652 54.3988 19.268 53.8308 19.716C53.3188 20.132 52.6428 20.34 51.8028 20.34C50.9308 20.34 50.2468 20.144 49.7508 19.752C49.3348 19.424 49.0788 18.98 48.9828 18.42ZM49.8948 14.76C49.8948 15.44 50.0948 15.972 50.4948 16.356C50.8228 16.676 51.2268 16.836 51.7068 16.836C52.3388 16.836 52.8228 16.628 53.1588 16.212C53.4468 15.86 53.5908 15.388 53.5908 14.796C53.5908 14.036 53.3948 13.456 53.0028 13.056C52.6748 12.728 52.2428 12.564 51.7068 12.564C51.1148 12.564 50.6588 12.768 50.3388 13.176C50.0428 13.56 49.8948 14.088 49.8948 14.76ZM65.197 15.66C65.197 15.372 65.133 15.144 65.005 14.976C64.861 14.776 64.597 14.592 64.213 14.424C63.829 14.256 63.249 14.064 62.473 13.848C61.433 13.56 60.717 13.204 60.325 12.78C60.005 12.436 59.845 11.976 59.845 11.4C59.845 10.704 60.149 10.152 60.757 9.744C61.317 9.368 62.045 9.18 62.941 9.18C63.941 9.18 64.753 9.416 65.377 9.888C65.937 10.304 66.265 10.848 66.361 11.52H65.101C65.029 11.064 64.789 10.724 64.381 10.5C64.021 10.292 63.541 10.188 62.941 10.188C62.269 10.188 61.773 10.316 61.453 10.572C61.197 10.772 61.069 11.032 61.069 11.352C61.069 11.56 61.101 11.732 61.165 11.868C61.237 11.996 61.357 12.112 61.525 12.216C61.837 12.424 62.441 12.652 63.337 12.9C64.585 13.252 65.429 13.652 65.869 14.1C66.237 14.468 66.421 14.972 66.421 15.612C66.421 16.372 66.089 17 65.425 17.496C64.801 17.952 64.009 18.18 63.049 18.18C62.049 18.18 61.221 17.912 60.565 17.376C59.997 16.912 59.657 16.312 59.545 15.576H60.805C60.885 16.104 61.137 16.508 61.561 16.788C61.945 17.044 62.433 17.172 63.025 17.172C63.761 17.172 64.325 17.004 64.717 16.668C65.037 16.396 65.197 16.06 65.197 15.66ZM67.4448 14.88C67.4448 13.736 67.7848 12.872 68.4648 12.288C69.0088 11.816 69.6968 11.58 70.5288 11.58C71.4968 11.58 72.2568 11.888 72.8088 12.504C73.3368 13.08 73.6008 13.872 73.6008 14.88C73.6008 16.008 73.2688 16.868 72.6048 17.46C72.0608 17.94 71.3648 18.18 70.5168 18.18C69.5488 18.18 68.7848 17.86 68.2248 17.22C67.7048 16.636 67.4448 15.856 67.4448 14.88ZM68.6448 14.88C68.6448 15.68 68.8488 16.292 69.2568 16.716C69.5928 17.068 70.0208 17.244 70.5408 17.244C71.1488 17.244 71.6168 17.016 71.9448 16.56C72.2488 16.144 72.4008 15.584 72.4008 14.88C72.4008 14.064 72.2008 13.448 71.8008 13.032C71.4728 12.688 71.0488 12.516 70.5288 12.516C69.9288 12.516 69.4608 12.744 69.1248 13.2C68.8048 13.616 68.6448 14.176 68.6448 14.88ZM74.5581 14.88C74.5581 13.736 74.8981 12.872 75.5781 12.288C76.1221 11.816 76.8101 11.58 77.6421 11.58C78.6101 11.58 79.3701 11.888 79.9221 12.504C80.4501 13.08 80.7141 13.872 80.7141 14.88C80.7141 16.008 80.3821 16.868 79.7181 17.46C79.1741 17.94 78.4781 18.18 77.6301 18.18C76.6621 18.18 75.8981 17.86 75.3381 17.22C74.8181 16.636 74.5581 15.856 74.5581 14.88ZM75.7581 14.88C75.7581 15.68 75.9621 16.292 76.3701 16.716C76.7061 17.068 77.1341 17.244 77.6541 17.244C78.2621 17.244 78.7301 17.016 79.0581 16.56C79.3621 16.144 79.5141 15.584 79.5141 14.88C79.5141 14.064 79.3141 13.448 78.9141 13.032C78.5861 12.688 78.1621 12.516 77.6421 12.516C77.0421 12.516 76.5741 12.744 76.2381 13.2C75.9181 13.616 75.7581 14.176 75.7581 14.88ZM83.1834 18H82.0314V11.76H82.9794L83.1114 12.552C83.5754 11.904 84.2074 11.58 85.0074 11.58C85.7434 11.58 86.3074 11.808 86.6994 12.264C87.0434 12.672 87.2154 13.228 87.2154 13.932V18H86.0634V13.944C86.0634 13.024 85.6194 12.564 84.7314 12.564C84.2674 12.564 83.8874 12.724 83.5914 13.044C83.3194 13.332 83.1834 13.7 83.1834 14.148V18Z" fill="#1B1C1D"/>
<path d="M92.4999 0.121582L95.5529 1.50025L99 3.17554L97.0208 3.17529H95.5563H92.4854L92.4999 1.50025V0.121582Z" fill="#849F7E"/>
</svg>
