<svg width="16" height="16" viewBox="0 0 16 16" fill="none" xmlns="http://www.w3.org/2000/svg">
<g id="warning-outline">
<path id="Combined Shape" fill-rule="evenodd" clip-rule="evenodd" d="M15.2595 13.255L8.43447 1.25496C8.25447 0.944961 7.74447 0.944961 7.56447 1.25496L0.739467 13.255C0.649467 13.41 0.654467 13.6 0.739467 13.755C0.824467 13.91 0.994466 14.005 1.16947 14.005H14.8195C14.9995 14.005 15.1645 13.91 15.2495 13.755C15.3345 13.6 15.3395 13.41 15.2495 13.255H15.2595ZM2.03447 13L7.99947 2.50996L13.9645 13H2.03447ZM8.50943 10.9099C8.44443 10.8399 8.36443 10.7849 8.27443 10.7499C8.18443 10.7149 8.09443 10.6949 7.99943 10.6899C7.80943 10.6949 7.63443 10.7749 7.49943 10.9049C7.36943 11.0399 7.29443 11.2199 7.28943 11.4099C7.28943 11.5049 7.30443 11.5949 7.33943 11.6849C7.37443 11.7699 7.42443 11.8499 7.48943 11.9199C7.55443 11.9849 7.63443 12.0399 7.71943 12.0749C7.80443 12.1099 7.89943 12.1299 7.98943 12.1299C8.17443 12.1249 8.35443 12.0449 8.48443 11.9149C8.61443 11.7849 8.69443 11.6099 8.70443 11.4199C8.70443 11.3249 8.68943 11.2299 8.65443 11.1399C8.61943 11.0499 8.56943 10.9699 8.49943 10.9049L8.50943 10.9099ZM7.28442 5.8499C7.28442 5.6749 7.33942 5.5099 7.43942 5.3699H7.44442C7.54442 5.2299 7.68942 5.1299 7.85442 5.0799C8.01942 5.0499 8.18442 5.0749 8.33442 5.1549C8.48442 5.2349 8.59942 5.3599 8.66942 5.5099C8.72442 5.6199 8.74442 5.7449 8.73442 5.8699C8.73442 6.08013 8.72008 6.29036 8.70542 6.50527L8.70442 6.5199C8.69442 6.6699 8.68442 6.8199 8.67942 6.9699C8.67942 7.3399 8.64942 7.7199 8.61942 8.0899C8.61415 8.16022 8.60826 8.22993 8.6024 8.29923C8.5916 8.42703 8.58091 8.55346 8.57442 8.6799V9.2199C8.56942 9.3649 8.50942 9.4999 8.40942 9.5999C8.30942 9.6999 8.17442 9.7549 8.02942 9.7549C7.88942 9.7549 7.75442 9.6999 7.64942 9.6049C7.54442 9.5099 7.48442 9.3749 7.47442 9.2349C7.45072 8.74177 7.42251 8.25314 7.39407 7.76047L7.38942 7.6799C7.36442 7.3099 7.34442 6.9399 7.32442 6.5649L7.28442 5.8499Z" fill="#C6800F"/>
</g>
</svg>
