<svg width="16" height="16" viewBox="0 0 16 16" fill="none" xmlns="http://www.w3.org/2000/svg">
<g id="reset &#226;&#154;&#160;&#239;&#184;&#143; DEPRECATED &#226;&#154;&#160;&#239;&#184;&#143;">
<path id="Combined Shape" fill-rule="evenodd" clip-rule="evenodd" d="M8 0.280526V1.97886C11.866 1.97886 15 5.11253 15 8.97886C15 12.8449 11.866 15.9789 8 15.9789C4.134 15.9789 1 12.8449 1 8.97886C1 6.91753 1.896 5.07053 3.31333 3.78986L4.435 4.57986C3.15433 5.61953 2.33333 7.20453 2.33333 8.97886C2.33333 12.1032 4.87533 14.6455 8 14.6455C11.1247 14.6455 13.6667 12.1032 13.6667 8.97886C13.6667 5.85419 11.1247 3.31219 8 3.31219V5.01019C8 5.25819 7.83533 5.34419 7.63367 5.20153L4 2.64253L7.63367 0.0895258C7.83533 -0.0531409 8 0.0325257 8 0.280526ZM9 9.02019C9 9.57248 8.55228 10.0202 8 10.0202C7.44772 10.0202 7 9.57248 7 9.02019C7 8.46791 7.44772 8.02019 8 8.02019C8.55228 8.02019 9 8.46791 9 9.02019Z" fill="#0070D2"/>
</g>
</svg>
