<svg width="16" height="16" viewBox="0 0 16 16" fill="none" xmlns="http://www.w3.org/2000/svg">
<path d="M13.7549 13.1102L10.8749 10.2302C12.5799 8.13516 12.4549 5.04516 10.5049 3.09516C8.4249 1.01516 5.0399 1.01516 2.9599 3.09516C0.879902 5.17516 0.879902 8.56016 2.9599 10.6402C3.9999 11.6802 5.3649 12.2002 6.7299 12.2002C7.9549 12.2002 9.1749 11.7802 10.1649 10.9452L13.0399 13.8202C13.1399 13.9202 13.2649 13.9652 13.3949 13.9652C13.5249 13.9652 13.6499 13.9152 13.7499 13.8202C13.9449 13.6252 13.9449 13.3102 13.7499 13.1152L13.7549 13.1102ZM3.6699 9.93016C1.9799 8.24016 1.9799 5.49016 3.6699 3.80016C4.5149 2.95516 5.6249 2.53516 6.7349 2.53516C7.8449 2.53516 8.9549 2.95516 9.7999 3.80016C11.4899 5.49016 11.4899 8.24016 9.7999 9.93016C8.1099 11.6202 5.3599 11.6202 3.6699 9.93016Z" fill="#1B1C1D"/>
</svg>
