<svg width="16" height="16" viewBox="0 0 16 16" fill="none" xmlns="http://www.w3.org/2000/svg">
<path fill-rule="evenodd" clip-rule="evenodd" d="M15.26 13.255L8.43496 1.25496C8.25496 0.944961 7.74495 0.944961 7.56495 1.25496L0.739955 13.255C0.649955 13.41 0.654955 13.6 0.739955 13.755C0.824955 13.91 0.994955 14.005 1.16995 14.005H14.82C15 14.005 15.165 13.91 15.25 13.755C15.335 13.6 15.34 13.41 15.25 13.255H15.26ZM2.03495 13L7.99995 2.50996L13.965 13H2.03495ZM8.50992 10.9099C8.44492 10.8399 8.36492 10.7849 8.27492 10.7499C8.18492 10.7149 8.09492 10.6949 7.99992 10.6899C7.80992 10.6949 7.63492 10.7749 7.49992 10.9049C7.36992 11.0399 7.29492 11.2199 7.28992 11.4099C7.28992 11.5049 7.30492 11.5949 7.33992 11.6849C7.37492 11.7699 7.42492 11.8499 7.48992 11.9199C7.55492 11.9849 7.63492 12.0399 7.71992 12.0749C7.80492 12.1099 7.89992 12.1299 7.98992 12.1299C8.17492 12.1249 8.35492 12.0449 8.48492 11.9149C8.61492 11.7849 8.69492 11.6099 8.70492 11.4199C8.70492 11.3249 8.68992 11.2299 8.65492 11.1399C8.61992 11.0499 8.56992 10.9699 8.49992 10.9049L8.50992 10.9099ZM7.28491 5.8499C7.28491 5.6749 7.33991 5.5099 7.43991 5.3699H7.44491C7.54491 5.2299 7.68991 5.1299 7.85491 5.0799C8.01991 5.0499 8.18491 5.0749 8.33491 5.1549C8.48491 5.2349 8.59991 5.3599 8.66991 5.5099C8.72491 5.6199 8.74491 5.7449 8.73491 5.8699C8.73491 6.08013 8.72057 6.29036 8.70591 6.50527L8.70491 6.5199C8.69491 6.6699 8.68491 6.8199 8.67991 6.9699C8.67991 7.3399 8.64991 7.7199 8.61991 8.0899C8.61464 8.16022 8.60875 8.22993 8.60289 8.29923C8.59208 8.42703 8.5814 8.55346 8.57491 8.6799V9.2199C8.56991 9.3649 8.50991 9.4999 8.40991 9.5999C8.30991 9.6999 8.17491 9.7549 8.02991 9.7549C7.88991 9.7549 7.75491 9.6999 7.64991 9.6049C7.54491 9.5099 7.48491 9.3749 7.47491 9.2349C7.4512 8.74177 7.423 8.25314 7.39456 7.76047L7.38991 7.6799C7.36491 7.3099 7.34491 6.9399 7.32491 6.5649L7.28491 5.8499Z" fill="#C6800F"/>
</svg>
