<svg width="20" height="21" viewBox="0 0 20 21" fill="none" xmlns="http://www.w3.org/2000/svg">
<path d="M10 1.8501C5.175 1.8501 1.25 5.7751 1.25 10.6001C1.25 15.4251 5.175 19.3501 10 19.3501C14.825 19.3501 18.75 15.4251 18.75 10.6001C18.75 5.7751 14.825 1.8501 10 1.8501ZM14.1937 8.05635L9.3875 14.4813C9.28125 14.6251 9.11875 14.7126 8.94375 14.7313C8.925 14.7313 8.90625 14.7313 8.8875 14.7313C8.73125 14.7313 8.575 14.6688 8.45625 14.5626L5.6375 11.9063C5.3875 11.6688 5.375 11.2751 5.6125 11.0251C5.85 10.7751 6.24375 10.7626 6.49375 11.0001L8.80625 13.1751L13.1938 7.3126C13.4 7.0376 13.7937 6.98135 14.0688 7.1876C14.3438 7.39385 14.4 7.7876 14.1937 8.0626V8.05635Z" fill="#399E20"/>
</svg>
