 <svg
            width="16"
            height="16"
            viewBox="0 0 16 16"
            fill="none"
            xmlns="http://www.w3.org/2000/svg"
          >
            <path
              fill-rule="evenodd"
              clip-rule="evenodd"
              d="M11.24 2.375H14.5C14.775 2.375 15 2.6 15 2.875V13.995C15 14.27 14.775 14.495 14.5 14.495H1.51C1.235 14.495 1.01 14.27 1.01 13.995V6.185C1.01 6.175 1.0075 6.16625 1.005 6.1575C1.0025 6.14875 1 6.14 1 6.13C1 6.11 1.01 6.075 1.01 6.075V2.875C1.01 2.6 1.235 2.375 1.51 2.375H4.765V1.5C4.765 1.225 4.99 1 5.265 1C5.54 1 5.765 1.225 5.765 1.5V2.375H10.24V1.5C10.24 1.225 10.465 1 10.74 1C11.015 1 11.24 1.225 11.24 1.5V2.375ZM4.77 4.2V3.375H4.765H2.01V5.63H14.005V3.375H11.245V4.2C11.245 4.475 11.02 4.7 10.745 4.7C10.47 4.7 10.245 4.475 10.245 4.2V3.375H5.77V4.2C5.77 4.475 5.545 4.7 5.27 4.7C4.995 4.7 4.77 4.475 4.77 4.2ZM2.015 6.63V13.5H14.005V6.63H2.015ZM7.54498 11.13L10.2 7.81005L10.205 7.80505C10.38 7.59005 10.695 7.55005 10.91 7.72505C11.125 7.90005 11.16 8.21505 10.99 8.43005L7.98498 12.19C7.89498 12.3 7.75998 12.365 7.61998 12.375H7.58998C7.45498 12.375 7.32998 12.325 7.23498 12.23L5.59498 10.59C5.39998 10.3951 5.39998 10.0801 5.59498 9.88505C5.78998 9.69005 6.10498 9.69005 6.29998 9.88505L7.54498 11.13Z"
              fill="#0070D2"
            />
          </svg>