<svg width="16" height="16" viewBox="0 0 16 16" fill="none" xmlns="http://www.w3.org/2000/svg">
<path fill-rule="evenodd" clip-rule="evenodd" d="M7.49999 3.12031L5.54499 5.48031C5.36999 5.69031 5.05499 5.72031 4.83999 5.54531C4.62999 5.37031 4.59999 5.05531 4.77499 4.84031L7.99999 0.945312L11.225 4.84031C11.4 5.05531 11.375 5.37031 11.16 5.54531C11.065 5.62031 10.95 5.66031 10.84 5.66031C10.695 5.66031 10.555 5.60031 10.455 5.48031L8.49999 3.12031V10.7503C8.49999 11.0253 8.27499 11.2503 7.99999 11.2503C7.72499 11.2503 7.49999 11.0253 7.49999 10.7503V3.12031ZM14 10.4802C14 10.2052 14.225 9.98022 14.5 9.98022C14.775 9.98022 15 10.2052 15 10.4802V13.4802C15 13.7552 14.775 13.9802 14.5 13.9802H1.5C1.225 13.9802 1 13.7552 1 13.4802V10.4802C1 10.2052 1.225 9.98022 1.5 9.98022C1.775 9.98022 2 10.2052 2 10.4802V12.9802H14V10.4802Z" fill="#0070D2"/>
</svg>
