<svg width="21" height="21" viewBox="0 0 21 21" fill="none" xmlns="http://www.w3.org/2000/svg">
<path fill-rule="evenodd" clip-rule="evenodd" d="M1.75 10.5C1.75 5.675 5.675 1.75 10.5 1.75C15.325 1.75 19.25 5.675 19.25 10.5C19.25 15.325 15.325 19.25 10.5 19.25C5.675 19.25 1.75 15.325 1.75 10.5ZM3 10.5C3 14.6375 6.3625 18 10.5 18C14.6375 18 18 14.6375 18 10.5C18 6.3625 14.6375 3 10.5 3C6.3625 3 3 6.3625 3 10.5ZM9.30623 13.0687L13.6937 7.20623V7.19999C13.9 6.92499 14.2937 6.86874 14.5687 7.07499C14.8437 7.28124 14.9 7.67499 14.6937 7.94999L9.88748 14.375C9.78123 14.5187 9.61873 14.6125 9.44373 14.625H9.38748C9.22498 14.625 9.07498 14.5625 8.95623 14.4562L6.13748 11.8C5.88748 11.5687 5.87498 11.1687 6.11248 10.9187C6.34998 10.6687 6.74373 10.6562 6.99373 10.8937L9.30623 13.0687Z" fill="#399E20"/>
</svg>
