<svg width="21" height="21" viewBox="0 0 21 21" fill="none" xmlns="http://www.w3.org/2000/svg">
<path fill-rule="evenodd" clip-rule="evenodd" d="M11.4613 1.11353C10.9294 0.496012 9.97285 0.496012 9.44092 1.11353L9.29615 1.28159C8.90502 1.73566 8.259 1.87297 7.717 1.61725L7.51638 1.5226C6.77928 1.17483 5.9054 1.5639 5.67063 2.34438L5.60673 2.5568C5.4341 3.1307 4.89978 3.5189 4.30063 3.50574L4.07886 3.50087C3.26403 3.48297 2.62396 4.19384 2.72693 5.00234L2.75496 5.22239C2.83067 5.81688 2.50045 6.38885 1.94774 6.62052L1.74316 6.70627C0.991497 7.02134 0.695899 7.9311 1.11881 8.62781L1.23392 8.81744C1.54489 9.32974 1.47586 9.98657 1.06517 10.423L0.913151 10.5846C0.354623 11.1781 0.454612 12.1295 1.12434 12.5939L1.30662 12.7203C1.79908 13.0619 2.00317 13.69 1.80551 14.2558L1.73235 14.4652C1.46353 15.2346 1.94181 16.063 2.74256 16.2149L2.9605 16.2563C3.54929 16.368 3.99122 16.8588 4.04076 17.456L4.0591 17.6771C4.12647 18.4893 4.90035 19.0516 5.69366 18.8647L5.90957 18.8138C6.49289 18.6763 7.09624 18.945 7.38442 19.4704L7.49109 19.6649C7.883 20.3795 8.81868 20.5784 9.46737 20.085L9.64392 19.9507C10.1209 19.5879 10.7814 19.5879 11.2583 19.9507L11.4349 20.085C12.0836 20.5784 13.0193 20.3795 13.4112 19.6649L13.5178 19.4704C13.806 18.945 14.4094 18.6763 14.9927 18.8138L15.2086 18.8647C16.0019 19.0516 16.7758 18.4893 16.8432 17.6771L16.8615 17.456C16.911 16.8588 17.353 16.368 17.9418 16.2563L18.1597 16.2149C18.9605 16.063 19.4387 15.2346 19.1699 14.4652L19.0968 14.2558C18.8991 13.69 19.1032 13.0619 19.5956 12.7203L19.7779 12.5939C20.4477 12.1295 20.5476 11.1781 19.9891 10.5846L19.8371 10.423C19.4264 9.98657 19.3574 9.32974 19.6683 8.81744L19.7835 8.62781C20.2064 7.9311 19.9108 7.02134 19.1591 6.70627L18.9545 6.62052C18.4018 6.38885 18.0716 5.81688 18.1473 5.22239L18.1753 5.00234C18.2783 4.19384 17.6382 3.48297 16.8234 3.50087L16.6016 3.50574C16.0025 3.5189 15.4682 3.1307 15.2955 2.5568L15.2316 2.34438C14.9969 1.5639 14.123 1.17483 13.3859 1.5226L13.1853 1.61725C12.6433 1.87297 11.9973 1.73566 11.6061 1.28159L11.4613 1.11353ZM13.6012 14.8971H9.09922V15.2226C9.09922 15.4712 8.89581 15.6746 8.64721 15.6746V15.6791H5.85383C5.60522 15.6791 5.40182 15.4757 5.40182 15.2271V7.79618C5.40182 7.54757 5.60522 7.34417 5.85383 7.34417H8.64721C8.89581 7.34417 9.09922 7.54757 9.09922 7.79618V8.3844L9.44729 8.21192C9.46989 8.19384 9.50153 8.17124 9.53769 8.14864C9.61001 8.09892 9.69137 8.04016 9.72753 8.00852C10.4236 7.41639 10.8485 6.68867 10.9931 5.84794L10.9996 5.80724L10.9996 5.80714C11.0109 5.73618 11.0217 5.66843 11.0293 5.60386L11.03 5.59893C11.0749 5.26148 11.1211 4.91526 11.409 4.59589C11.6033 4.34729 12.0463 4.171 12.5119 4.28401C12.6113 4.30209 12.7243 4.34729 12.8328 4.41961C12.8494 4.43166 12.8634 4.44171 12.8752 4.45008C12.8986 4.46682 12.9127 4.47686 12.9187 4.48289C13.6554 5.15637 13.7865 6.25022 13.3255 7.665C13.3074 7.71472 13.217 7.95428 13.113 8.22096H14.3696C14.6725 8.22096 15.1109 8.25712 15.4725 8.42436C15.9019 8.62324 16.2002 9.07525 16.2274 9.56793V9.79845C16.2274 11.3579 15.816 12.8404 15.0115 14.21C14.8216 14.5309 14.5188 14.7569 14.1707 14.8428C13.9538 14.9061 13.5876 14.9106 13.5831 14.9106L13.6012 14.8971ZM13.6012 13.9931H9.09922V9.3928L9.88573 9.00293L9.96258 8.95773L9.96259 8.95772C9.98067 8.94415 10.0168 8.91704 10.062 8.88541C10.1705 8.80857 10.2971 8.71364 10.3242 8.69104C11.1785 7.96332 11.7073 7.05931 11.8881 6.00162C11.8989 5.94227 11.9065 5.88453 11.9137 5.82936L11.9137 5.82928C11.9186 5.79204 11.9233 5.75598 11.9288 5.72138L11.9293 5.71796V5.71795C11.9696 5.43106 11.988 5.30059 12.0915 5.19253L12.1096 5.17445C12.1367 5.16089 12.2136 5.13377 12.3175 5.15185L12.3492 5.17445C12.9051 5.71234 12.6656 6.78359 12.4712 7.37571C12.4305 7.48871 12.0328 8.49668 12.0328 8.49668L11.7887 9.11593H14.3741C14.6725 9.11593 14.9346 9.16113 15.1019 9.23797C15.2555 9.30577 15.3369 9.49109 15.3369 9.63573V9.92502C15.3143 11.2675 14.9482 12.5512 14.2476 13.7399C14.1843 13.8484 14.0803 13.9298 13.9673 13.9479L13.9267 13.9659C13.8724 13.9795 13.6735 13.9931 13.6012 13.9931ZM8.19521 9.22089C8.17935 9.15371 8.18001 9.08487 8.19521 9.01945V8.2527H6.30583V14.7751H8.19521V9.22089Z" fill="#227BB1"/>
</svg>
