<svg width="19" height="19" viewBox="0 0 19 19" fill="none" xmlns="http://www.w3.org/2000/svg">
<g id="warning-outline">
<path id="Combined Shape" fill-rule="evenodd" clip-rule="evenodd" d="M17.9821 15.1852L10.1632 1.43774C9.95703 1.0826 9.37276 1.0826 9.16655 1.43774L1.34766 15.1852C1.24455 15.3628 1.25028 15.5805 1.34766 15.7581C1.44504 15.9356 1.63979 16.0445 1.84028 16.0445H17.4781C17.6843 16.0445 17.8733 15.9356 17.9707 15.7581C18.0681 15.5805 18.0738 15.3628 17.9707 15.1852H17.9821ZM2.83124 14.8931L9.66489 2.8755L16.4985 14.8931H2.83124ZM10.2491 12.4987C10.1747 12.4185 10.083 12.3555 9.9799 12.3154C9.87679 12.2753 9.77369 12.2524 9.66485 12.2467C9.44718 12.2524 9.2467 12.3441 9.09204 12.493C8.94311 12.6477 8.85719 12.8539 8.85146 13.0715C8.85146 13.1804 8.86864 13.2835 8.90874 13.3866C8.94884 13.484 9.00612 13.5756 9.08058 13.6558C9.15505 13.7303 9.2467 13.7933 9.34408 13.8334C9.44145 13.8735 9.55029 13.8964 9.6534 13.8964C9.86534 13.8907 10.0715 13.799 10.2205 13.6501C10.3694 13.5012 10.4611 13.3007 10.4725 13.083C10.4725 12.9742 10.4553 12.8653 10.4152 12.7622C10.3751 12.6591 10.3179 12.5675 10.2377 12.493L10.2491 12.4987ZM8.84572 6.70182C8.84572 6.50134 8.90873 6.31231 9.0233 6.15192H9.02903C9.14359 5.99153 9.3097 5.87697 9.49873 5.81969C9.68776 5.78532 9.87679 5.81396 10.0486 5.90561C10.2205 5.99726 10.3522 6.14047 10.4324 6.31231C10.4954 6.43833 10.5183 6.58153 10.5069 6.72473C10.5069 6.96558 10.4905 7.20643 10.4737 7.45263L10.4725 7.46939C10.4611 7.64123 10.4496 7.81308 10.4439 7.98492C10.4439 8.4088 10.4095 8.84414 10.3751 9.26802C10.3691 9.34858 10.3623 9.42843 10.3556 9.50782C10.3433 9.65424 10.331 9.79909 10.3236 9.94394V10.5626C10.3179 10.7287 10.2491 10.8834 10.1346 10.9979C10.02 11.1125 9.86533 11.1755 9.69921 11.1755C9.53883 11.1755 9.38417 11.1125 9.26388 11.0036C9.14359 10.8948 9.07485 10.7401 9.06339 10.5798C9.03624 10.0149 9.00393 9.45518 8.97136 8.89086L8.96602 8.79831C8.93737 8.37443 8.91446 7.95055 8.89155 7.52094L8.84572 6.70182Z" fill="white"/>
</g>
</svg>
