<svg width="12" height="12" viewBox="0 0 12 12" fill="none" xmlns="http://www.w3.org/2000/svg">
<path d="M6.52874 5.62496L10.3875 1.76621C10.5337 1.61996 10.5337 1.38371 10.3875 1.23746C10.2412 1.09121 10.005 1.09121 9.85875 1.23746L5.99999 5.09621L2.14125 1.23371C1.995 1.08746 1.75875 1.08746 1.6125 1.23371C1.46625 1.37996 1.46625 1.61621 1.6125 1.76246L5.47124 5.62121L1.6125 9.47996C1.46625 9.62621 1.46625 9.86246 1.6125 10.0087C1.6875 10.0837 1.78125 10.1175 1.87875 10.1175C1.97625 10.1175 2.06999 10.08 2.14499 10.0087L6.00375 6.14996L9.8625 10.0087C9.9375 10.0837 10.0312 10.1175 10.1287 10.1175C10.2262 10.1175 10.32 10.08 10.395 10.0087C10.5412 9.86246 10.5412 9.62621 10.395 9.47996L6.53624 5.62121L6.52874 5.62496Z" fill="#0070D2"/>
</svg>
